<?xml version="1.0" encoding="UTF-8" standalone="no"?>
<svg
   viewBox="0 0 64 63.999997"
   height="64"
   width="64"
   xml:space="preserve"
   id="svg4485"
   version="1.1"
   sodipodi:docname="BearAXK.svg"
   inkscape:version="1.2.2 (732a01da63, 2022-12-09)"
   xmlns:inkscape="http://www.inkscape.org/namespaces/inkscape"
   xmlns:sodipodi="http://sodipodi.sourceforge.net/DTD/sodipodi-0.dtd"
   xmlns:xlink="http://www.w3.org/1999/xlink"
   xmlns="http://www.w3.org/2000/svg"
   xmlns:svg="http://www.w3.org/2000/svg"
   xmlns:rdf="http://www.w3.org/1999/02/22-rdf-syntax-ns#"
   xmlns:cc="http://creativecommons.org/ns#"
   xmlns:dc="http://purl.org/dc/elements/1.1/">
    <sodipodi:namedview
   pagecolor="#ffffff"
   bordercolor="#666666"
   borderopacity="1"
   objecttolerance="10"
   gridtolerance="10"
   guidetolerance="10"
   inkscape:pageopacity="0"
   inkscape:pageshadow="2"
   inkscape:window-width="1839"
   inkscape:window-height="1057"
   id="namedview449"
   showgrid="false"
   inkscape:zoom="11.313709"
   inkscape:cx="30.626561"
   inkscape:cy="30.93592"
   inkscape:window-x="73"
   inkscape:window-y="-8"
   inkscape:window-maximized="1"
   inkscape:current-layer="svg4485"
   inkscape:showpageshadow="2"
   inkscape:pagecheckerboard="0"
   inkscape:deskcolor="#d1d1d1" />
    <metadata
   id="metadata4491">
        <rdf:RDF>
            <cc:Work
   rdf:about="">
                <dc:format>image/svg+xml</dc:format>
                <dc:type
   rdf:resource="http://purl.org/dc/dcmitype/StillImage" />
                
            </cc:Work>
        </rdf:RDF>
    </metadata>
    <defs
   id="defs4489">
        <linearGradient
   gradientUnits="userSpaceOnUse"
   y2="60.289665"
   x2="3.7103343"
   y1="40.950954"
   x1="46.32296"
   id="linearGradient7549"
   xlink:href="#linearGradient7547" />
        <linearGradient
   id="linearGradient7547">
            <stop
   id="stop7543"
   offset="0"
   style="stop-color:#37c837;stop-opacity:1;" />
            <stop
   id="stop7545"
   offset="1"
   style="stop-color:#37c837;stop-opacity:0;" />
        </linearGradient>
        <linearGradient
   gradientUnits="userSpaceOnUse"
   y2="43.874249"
   x2="-5.5092831"
   y1="15.765656"
   x1="56.891792"
   id="linearGradient7533"
   xlink:href="#linearGradient7547" />
        <linearGradient
   gradientUnits="userSpaceOnUse"
   y2="32.63081"
   x2="-2.9232936"
   y1="6.3211684"
   x1="39.5769"
   id="linearGradient7541"
   xlink:href="#linearGradient7547" />
    <inkscape:path-effect
   effect="fill_between_many"
   method="originald"
   linkedpaths="#g418,0,1|#g434,0,1|#g438,0,1|#g414,0,1|#g442,0,1|#g446,0,1"
   id="path-effect29386" /><inkscape:path-effect
   effect="fill_between_many"
   method="originald"
   linkedpaths="#g94,0,1|#g422,0,1|#g442,0,1|#g446,0,1"
   id="path-effect29390" /><inkscape:path-effect
   effect="fill_between_many"
   method="originald"
   linkedpaths="#path29392,0,1|"
   id="path-effect29394" /><inkscape:path-effect
   effect="fill_between_many"
   method="originald"
   linkedpaths="#path36340,0,1"
   id="path-effect36343" /></defs>
    
    
    
    
    
    
    
    
    
    
    
<path
   inkscape:original-d="M 0,0"
   inkscape:path-effect="#path-effect29394"
   d="M 0,0 Z"
   id="path29396"
   class="UnoptimicedTransforms" /><path
   inkscape:original-d="M 0,0"
   inkscape:path-effect="#path-effect29390"
   d="M 0,0"
   id="path29392"
   class="UnoptimicedTransforms" /><path
   inkscape:original-d="M 0,0"
   inkscape:path-effect="#path-effect29386"
   d="M 0,0"
   id="path29388"
   class="UnoptimicedTransforms" /><g
   id="g999"
   transform="matrix(1.1000055,0,0,1.0967299,-3.1997523,-2.7015036)"
   style="stroke-width:0.910443"><path
     id="path38127"
     style="font-style:normal;font-weight:400;font-size:29.1042px;font-family:'MS Shell Dlg 2';fill:#ffaf00;fill-opacity:1;stroke:#000000;stroke-width:0.0910443;stroke-linecap:round;stroke-linejoin:bevel;stroke-dasharray:none;stroke-opacity:1"
     d="m 3.5910059,35.301195 c 0,8.676117 6.9216261,16.49794 17.5373131,19.818203 V 53.469266 C 19.409118,52.931566 17.764042,52.267598 16.216802,51.486974 8.3276545,47.506732 3.5910059,40.815381 3.5910059,33.651109 Z"
     sodipodi:nodetypes="cccccc" /><path
     id="path38120"
     style="font-style:normal;font-weight:400;font-size:29.1042px;font-family:'MS Shell Dlg 2';fill:#ffaf00;fill-opacity:1;stroke:#000000;stroke-width:0.0910443;stroke-linecap:round;stroke-linejoin:bevel;stroke-dasharray:none;stroke-opacity:1"
     d="m 16.216802,51.486974 c 1.54724,0.780624 3.192316,1.444592 4.911517,1.982292 2.156415,-3.930905 3.877573,-7.068464 5.853973,-10.671314 -0.988023,-0.316719 -1.81842,-0.691548 -2.641028,-1.110869 l -8.124462,9.181124 C 8.3276545,46.887942 3.5910059,40.19659 3.5910059,33.032332 c -0.00197,0.103123 -5e-7,0.515633 -3e-7,0.618777 3e-7,7.164272 4.7366489,13.855623 12.6257964,17.835865 z"
     sodipodi:nodetypes="cccccccc" /><path
     id="path38109"
     style="font-style:normal;font-weight:400;font-size:29.1042px;font-family:'MS Shell Dlg 2';fill:#917c6f;fill-opacity:1;stroke:#000000;stroke-width:0.0455222;stroke-linecap:round;stroke-linejoin:bevel;stroke-dasharray:none;stroke-opacity:1"
     d="m 16.216802,48.805594 v 2.062613 C 8.3276545,46.887942 3.5910059,40.19659 3.5910059,33.032332 v -2.062599 c 0,7.164267 4.7366486,13.855619 12.6257961,17.835861 z"
     sodipodi:nodetypes="ccccc" /><path
     id="path38102"
     style="opacity:1;fill:#917c6f;fill-opacity:1;stroke:#917c6f;stroke-width:0.0455222;stroke-dasharray:none;stroke-opacity:1"
     d="m 22.389524,40.048012 -8.498848,6.417298 -2.412511,-1.821626 8.498848,-6.417298 c 0.293246,-0.169697 0.737038,-0.06226 1.206245,0.292045 0.469206,0.354282 0.912998,0.917044 1.206266,1.529581 l 2.325908,-0.846337 C 22.344157,38.005304 20.554108,36.257769 19.6167,34.223999 l -1.749446,0.54715 c 0.253932,0.462909 0.494119,1.128394 0.652816,1.808838 L 7.4157268,40.053006 6.4732047,38.334803 C 6.2199523,38.414023 6.0336462,38.472659 5.7535838,38.559899 4.325924,35.957346 3.5910059,33.167942 3.5910059,30.350954 c -0.00197,0.103123 -5e-7,0.515645 -5e-7,0.618779 3e-7,7.164267 4.7366489,13.855619 12.6257966,17.835861 l 8.49863,-9.603919 z"
     sodipodi:nodetypes="ccccccccccccccsccc" /><path
     id="path37290"
     style="font-style:normal;font-weight:400;font-size:29.1042px;font-family:'MS Shell Dlg 2';fill:#ffaf00;fill-opacity:1;stroke:#000000;stroke-width:0.0910443;stroke-linecap:round;stroke-linejoin:bevel;stroke-dasharray:none;stroke-opacity:1"
     d="m 51.31551,44.935729 -8.498826,-6.417298 c 0,1.219282 0,2.162142 0,3.300148 l 8.498826,6.417299 c 0,-1.124367 0,-2.323019 0,-3.300149 z"
     sodipodi:nodetypes="ccccc" /><path
     id="path37267"
     style="font-style:normal;font-weight:400;font-size:29.1042px;font-family:'MS Shell Dlg 2';fill:#917c6f;fill-opacity:1;stroke:#000000;stroke-width:0.0910443;stroke-linecap:round;stroke-linejoin:bevel;stroke-dasharray:none;stroke-opacity:1"
     d="M 42.816684,41.199812 41.271433,40.03303 v -2.062613 l 1.545251,1.166782 z"
     sodipodi:nodetypes="ccccc" /><path
     id="path37277"
     style="font-style:normal;font-weight:400;font-size:29.1042px;font-family:'MS Shell Dlg 2';fill:#917c6f;fill-opacity:1;stroke:#000000;stroke-width:0.0910443;stroke-linecap:round;stroke-linejoin:bevel;stroke-dasharray:none;stroke-opacity:1"
     d="M 52.088147,46.137888 51.31551,45.554497 v 2.062613 l 0.772637,0.583391 z"
     sodipodi:nodetypes="ccccc" /><path
     id="path37255"
     style="font-style:normal;font-weight:400;font-size:29.1042px;font-family:'MS Shell Dlg 2';fill:#ffaf00;fill-opacity:1;stroke:#000000;stroke-width:0.0910443;stroke-linecap:round;stroke-linejoin:bevel;stroke-dasharray:none;stroke-opacity:1"
     d="m 5.7535838,36.909813 v 1.650086 C 4.325924,35.957346 3.5910059,33.167942 3.5910059,30.350954 v -1.650079 c 0,2.816989 0.7349181,5.606385 2.1625779,8.208938 z"
     class="UnoptimicedTransforms"
     sodipodi:nodetypes="ccccc" /><path
     id="path36356"
     style="font-style:normal;font-weight:400;font-size:29.1042px;font-family:'MS Shell Dlg 2';fill:#ffaf00;fill-opacity:1;stroke:#000000;stroke-width:0.0455222;stroke-linecap:round;stroke-linejoin:bevel;stroke-dasharray:none;stroke-opacity:1"
     d="m 52.088147,43.869034 -10.816714,-8.16747 c 2.458949,-1.856699 3.840368,-4.374921 3.840368,-7.000689 0,-5.467888 -5.870363,-9.900468 -13.111831,-9.900468 -7.241466,0 -13.111829,4.43258 -13.111829,9.900468 0,1.300149 0.339137,2.587566 0.998072,3.788747 L 5.7535838,36.909813 C 4.325924,34.30726 3.5910059,31.517864 3.5910059,28.700875 c 0,-11.847079 12.7191311,-21.4510212 28.4089641,-21.4510212 15.689835,0 28.408966,9.6039422 28.408966,21.4510212 0,5.689157 -2.992994,11.145307 -8.320789,15.168159 z"
     class="UnoptimicedTransforms"
     sodipodi:nodetypes="cccsccccscc" /><path
     fill-rule="evenodd"
     vector-effect="non-scaling-stroke"
     d="m 44.794254,30.866603 c 0.101071,-0.34045 0.178234,-0.684697 0.231184,-1.031299 -0.763153,-4.995846 -6.365269,-8.766043 -13.025468,-8.766043 -6.660197,0 -12.262314,3.770197 -13.025466,8.766043 0.05295,0.346602 0.130113,0.690849 0.231184,1.031299 1.342323,-4.521203 6.657946,-7.734753 12.794282,-7.734753 6.136337,0 11.451939,3.21355 12.794284,7.734753"
     id="path12"
     style="font-style:normal;font-weight:400;font-size:29.1042px;font-family:'MS Shell Dlg 2';fill:#917c6f;fill-opacity:1;stroke:none;stroke-width:0.0910443;stroke-linecap:square;stroke-linejoin:bevel;stroke-dasharray:none" /><path
     fill-rule="evenodd"
     vector-effect="non-scaling-stroke"
     d="m 45.066194,29.525915 c 0.0304,-0.274415 0.04561,-0.549668 0.04561,-0.82504 0,-5.467888 -5.870363,-9.900468 -13.111831,-9.900468 v 0 c -7.241466,0 -13.111829,4.43258 -13.111829,9.900468 0,0.275372 0.01521,0.550625 0.04561,0.82504 0.568158,-5.130114 6.248355,-9.075422 13.066222,-9.075422 6.817868,0 12.498066,3.945308 13.066224,9.075422"
     id="path20"
     style="font-style:normal;font-weight:400;font-size:29.1042px;font-family:'MS Shell Dlg 2';fill:#ffaf00;fill-opacity:1;stroke:none;stroke-width:0.0910443;stroke-linecap:square;stroke-linejoin:bevel;stroke-dasharray:none" /><path
     fill-rule="evenodd"
     vector-effect="non-scaling-stroke"
     d="m 44.361914,32.001032 c 0.127009,-0.271223 0.238285,-0.546497 0.333521,-0.825039 -1.494727,-4.371231 -6.716491,-7.425352 -12.695465,-7.425352 -5.978972,0 -11.200736,3.054121 -12.695485,7.425352 0.09526,0.278542 0.206533,0.553816 0.333543,0.825039 1.852177,-3.955702 6.805368,-6.600305 12.361942,-6.600305 5.556576,0 10.509766,2.644603 12.361944,6.600305"
     id="path24"
     style="font-style:normal;font-weight:400;font-size:29.1042px;font-family:'MS Shell Dlg 2';fill:#ffaf00;fill-opacity:1;stroke:none;stroke-width:0.0910443;stroke-linecap:square;stroke-linejoin:bevel;stroke-dasharray:none" /><path
     fill-rule="evenodd"
     vector-effect="non-scaling-stroke"
     d="m 22.389524,40.048012 c -0.293268,-0.612537 -0.73706,-1.175299 -1.206266,-1.529581 -0.469207,-0.354305 -0.912999,-0.461742 -1.206245,-0.292045 l -8.498848,6.417298 2.412511,1.821626 8.498848,-6.417298"
     id="path32"
     style="font-style:normal;font-weight:400;font-size:29.1042px;font-family:'MS Shell Dlg 2';fill:#ffff00;fill-opacity:1;stroke:none;stroke-width:0.0910443;stroke-linecap:square;stroke-linejoin:bevel;stroke-dasharray:none" /><path
     fill-rule="evenodd"
     vector-effect="non-scaling-stroke"
     d="m 22.389524,40.048012 c -0.293268,-0.612537 -0.73706,-1.175299 -1.206266,-1.529581 -0.469207,-0.354305 -0.912999,-0.461742 -1.206245,-0.292045 l -8.498848,6.417298 c 0.293246,-0.169697 0.737038,-0.06226 1.206245,0.292045 0.469228,0.354282 0.91302,0.917044 1.206266,1.529581 l 8.498848,-6.417298"
     id="path36"
     style="font-style:normal;font-weight:400;font-size:29.1042px;font-family:'MS Shell Dlg 2';fill:#ffaf00;fill-opacity:1;stroke:none;stroke-width:0.0910443;stroke-linecap:square;stroke-linejoin:bevel;stroke-dasharray:none" /><path
     fill-rule="evenodd"
     vector-effect="non-scaling-stroke"
     d="M 19.886213,34.13971 V 32.489622 L 5.7535838,36.909813 v 1.650086 l 0.7196209,-0.225096 0.2897714,-0.09063 11.1042779,-3.473019 1.749446,-0.54715 0.269513,-0.08429"
     id="path40"
     style="font-style:normal;font-weight:400;font-size:29.1042px;font-family:'MS Shell Dlg 2';fill:#ffaf00;fill-opacity:1;stroke:none;stroke-width:0.0455222;stroke-linecap:square;stroke-linejoin:bevel;stroke-dasharray:none" /><path
     fill-rule="evenodd"
     vector-effect="non-scaling-stroke"
     d="M 18.52007,36.579987 C 18.361373,35.899543 18.121186,35.234058 17.867254,34.771149 L 6.7629761,38.244168 c 0.2539325,0.462908 0.4940975,1.128394 0.6527506,1.808838 L 18.52007,36.579987"
     id="path44"
     style="font-style:normal;font-weight:400;font-size:29.1042px;font-family:'MS Shell Dlg 2';fill:#ffaf00;fill-opacity:1;stroke:none;stroke-width:0.0455222;stroke-linecap:square;stroke-linejoin:bevel;stroke-dasharray:none" /><path
     fill-rule="evenodd"
     vector-effect="non-scaling-stroke"
     d="M 52.088147,43.869034 V 45.51912 L 51.725255,45.245113 51.31551,44.935729 42.816684,38.518431 41.672109,37.654196 41.271433,37.35165 v -1.650086 l 10.816714,8.16747"
     id="path48"
     style="font-style:normal;font-weight:400;font-size:29.1042px;font-family:'MS Shell Dlg 2';fill:#ffaf00;fill-opacity:1;stroke:none;stroke-width:0.0910443;stroke-linecap:square;stroke-linejoin:bevel;stroke-dasharray:none" /><path
     fill-rule="evenodd"
     vector-effect="non-scaling-stroke"
     d="m 41.271433,42.301884 v -1.650086 l 1.545251,1.166781 8.498826,6.417299 0.772637,0.58339 v 1.650086 l -10.816714,-8.16747"
     id="path52"
     style="font-style:normal;font-weight:400;font-size:29.1042px;font-family:'MS Shell Dlg 2';fill:#ffaf00;fill-opacity:1;stroke:none;stroke-width:0.0910443;stroke-linecap:square;stroke-linejoin:bevel;stroke-dasharray:none" /><path
     fill-rule="evenodd"
     vector-effect="non-scaling-stroke"
     d="m 16.216802,50.868207 8.124462,-9.181124 0.374168,-0.422818 v -2.06259 l -8.49863,9.603919 v 2.062613"
     id="path56"
     style="font-style:normal;font-weight:400;font-size:29.1042px;font-family:'MS Shell Dlg 2';fill:#917c6f;fill-opacity:1;stroke:none;stroke-width:0.0910443;stroke-linecap:square;stroke-linejoin:bevel;stroke-dasharray:none" /><path
     fill-rule="evenodd"
     vector-effect="non-scaling-stroke"
     d="m 52.088147,48.200501 c 5.227271,-3.947105 8.211305,-9.277337 8.31773,-14.858781 0.002,-0.103122 0.0031,-0.206256 0.0031,-0.309388 v -2.062599 c 0,5.689175 -2.992994,11.145302 -8.320789,15.168155 v 2.062613"
     id="path60"
     style="font-style:normal;font-weight:400;font-size:29.1042px;font-family:'MS Shell Dlg 2';fill:#917c6f;fill-opacity:1;stroke:none;stroke-width:0.0910443;stroke-linecap:square;stroke-linejoin:bevel;stroke-dasharray:none" /><path
     fill-rule="evenodd"
     vector-effect="non-scaling-stroke"
     d="m 45.025438,29.835304 c 0.01573,-0.102962 0.02933,-0.206105 0.04076,-0.309389 -0.568158,-5.130114 -6.248356,-9.075422 -13.066224,-9.075422 -6.817867,0 -12.498064,3.945308 -13.066222,9.075422 0.01143,0.103284 0.02502,0.206427 0.04076,0.309389 0.763152,-4.995846 6.365269,-8.766043 13.025466,-8.766043 6.660199,0 12.262315,3.770197 13.025468,8.766043"
     id="path64"
     style="font-style:normal;font-weight:400;font-size:29.1042px;font-family:'MS Shell Dlg 2';fill:#917c6f;fill-opacity:1;stroke:none;stroke-width:0.0910443;stroke-linecap:square;stroke-linejoin:bevel;stroke-dasharray:none" /><path
     fill-rule="evenodd"
     vector-effect="non-scaling-stroke"
     d="m 44.695435,31.175993 c 0.03514,-0.102724 0.06807,-0.205867 0.09882,-0.30939 C 43.451909,26.3454 38.136307,23.13185 31.99997,23.13185 c -6.136336,0 -11.451959,3.21355 -12.794282,7.734753 0.03075,0.103523 0.06368,0.206666 0.0988,0.30939 1.494749,-4.371231 6.716513,-7.425352 12.695485,-7.425352 5.978974,0 11.200738,3.054121 12.695465,7.425352"
     id="path68"
     style="font-style:normal;font-weight:400;font-size:29.1042px;font-family:'MS Shell Dlg 2';fill:#ffaf00;fill-opacity:1;stroke:none;stroke-width:0.0910443;stroke-linecap:square;stroke-linejoin:bevel;stroke-dasharray:none" /><path
     fill-rule="evenodd"
     vector-effect="non-scaling-stroke"
     d="m 52.088147,43.869034 c 5.327795,-4.022852 8.320789,-9.479002 8.320789,-15.168159 v 1.650079 c 0,0.103134 -0.0011,0.206266 -0.0031,0.30939 -0.106425,5.58144 -3.090459,10.911671 -8.31773,14.858776 v -1.650086"
     id="path72"
     style="font-style:normal;font-weight:400;font-size:29.1042px;font-family:'MS Shell Dlg 2';fill:#ffaf00;fill-opacity:1;stroke:none;stroke-width:0.0910443;stroke-linecap:square;stroke-linejoin:bevel;stroke-dasharray:none" /><path
     fill-rule="evenodd"
     vector-effect="non-scaling-stroke"
     d="m 52.088147,48.819268 c 5.327795,-4.022852 8.320789,-9.479003 8.320789,-15.168159 v 1.650086 c 0,5.689156 -2.992994,11.145306 -8.320789,15.168159 v -1.650086"
     id="path76"
     style="font-style:normal;font-weight:400;font-size:29.1042px;font-family:'MS Shell Dlg 2';fill:#ffaf00;fill-opacity:1;stroke:none;stroke-width:0.0910443;stroke-linecap:square;stroke-linejoin:bevel;stroke-dasharray:none" /><path
     fill-rule="evenodd"
     vector-effect="non-scaling-stroke"
     d="m 26.982292,44.448038 v -1.650086 l -0.836272,1.52447 -4.599543,8.384609 -0.418158,0.762235 v 1.650132 l 5.853973,-10.67136"
     id="path80"
     style="font-style:normal;font-weight:400;font-size:29.1042px;font-family:'MS Shell Dlg 2';fill:#ffaf00;fill-opacity:1;stroke:none;stroke-width:0.0910443;stroke-linecap:square;stroke-linejoin:bevel;stroke-dasharray:none" /><path
     fill-rule="evenodd"
     vector-effect="non-scaling-stroke"
     d="m 51.31551,48.235878 0.772637,0.58339 c 5.327795,-4.022852 8.320789,-9.479003 8.320789,-15.168159 0,-0.103144 -0.0011,-0.206266 -0.0031,-0.309389 -0.106425,5.581444 -3.090459,10.911676 -8.31773,14.858781 l -0.395868,-0.298906 c -0.123186,0.126082 -0.249737,0.238373 -0.376769,0.334283"
     id="path84"
     style="font-style:normal;font-weight:400;font-size:29.1042px;font-family:'MS Shell Dlg 2';fill:#ffaf00;fill-opacity:1;stroke:none;stroke-width:0.0910443;stroke-linecap:square;stroke-linejoin:bevel;stroke-dasharray:none" /><path
     fill-rule="evenodd"
     vector-effect="non-scaling-stroke"
     d="m 52.088147,46.137888 c 5.327795,-4.022853 8.320789,-9.47898 8.320789,-15.168155 0,-0.103134 -0.0011,-0.206266 -0.0031,-0.309389 -0.106425,5.58144 -3.090459,10.911671 -8.31773,14.858776 l -0.362892,-0.274007 -0.409745,0.309384 0.772637,0.583391"
     id="path88"
     style="font-style:normal;font-weight:400;font-size:29.1042px;font-family:'MS Shell Dlg 2';fill:#917c6f;fill-opacity:1;stroke:none;stroke-width:0.0910443;stroke-linecap:square;stroke-linejoin:bevel;stroke-dasharray:none" /><path
     fill-rule="evenodd"
     vector-effect="non-scaling-stroke"
     d="M 13.890676,46.46531 C 13.59743,45.852773 13.153638,45.290011 12.68441,44.935729 12.215203,44.581425 11.771411,44.473987 11.478165,44.643684 l 2.412511,1.821626"
     id="path92"
     style="font-style:normal;font-weight:400;font-size:29.1042px;font-family:'MS Shell Dlg 2';fill:#ffaf00;fill-opacity:1;stroke:none;stroke-width:0.0910443;stroke-linecap:square;stroke-linejoin:bevel;stroke-dasharray:none" /><path
     fill-rule="evenodd"
     vector-effect="non-scaling-stroke"
     d="m 42.816684,39.137199 v -0.618768 l -1.144575,-0.864235 c -0.130441,0.107624 -0.26405,0.213054 -0.400676,0.316221 l 1.545251,1.166782"
     id="path96"
     style="font-style:normal;font-weight:400;font-size:29.1042px;font-family:'MS Shell Dlg 2';fill:#917c6f;fill-opacity:1;stroke:none;stroke-width:0.0910443;stroke-linecap:square;stroke-linejoin:bevel;stroke-dasharray:none" /><path
     fill-rule="evenodd"
     vector-effect="non-scaling-stroke"
     d="m 41.271433,40.651798 1.545251,1.166781 v -0.618767 l -1.144575,-0.864235 c -0.130441,0.107624 -0.26405,0.213054 -0.400676,0.316221"
     id="path100"
     style="font-style:normal;font-weight:400;font-size:29.1042px;font-family:'MS Shell Dlg 2';fill:#ffaf00;fill-opacity:1;stroke:none;stroke-width:0.0910443;stroke-linecap:square;stroke-linejoin:bevel;stroke-dasharray:none" /><path
     fill-rule="evenodd"
     vector-effect="non-scaling-stroke"
     d="M 7.4157268,40.053006 C 7.2570736,39.372562 7.0169086,38.707076 6.7629761,38.244168 l -0.2897714,0.09063 0.9425221,1.718203"
     id="path104"
     style="font-style:normal;font-weight:400;font-size:29.1042px;font-family:'MS Shell Dlg 2';fill:#ffaf00;fill-opacity:1;stroke:none;stroke-width:0.0455222;stroke-linecap:square;stroke-linejoin:bevel;stroke-dasharray:none" /><path
     fill-rule="evenodd"
     vector-effect="non-scaling-stroke"
     d="m 51.31551,45.554497 0.409745,-0.309384 -0.409745,-0.309384 v 0.618768"
     id="path108"
     style="font-style:normal;font-weight:400;font-size:29.1042px;font-family:'MS Shell Dlg 2';fill:#ffaf00;fill-opacity:1;stroke:none;stroke-width:0.0910443;stroke-linecap:square;stroke-linejoin:bevel;stroke-dasharray:none" /><path
     fill-rule="evenodd"
     vector-effect="non-scaling-stroke"
     d="m 51.31551,48.235878 c 0.127032,-0.09591 0.253583,-0.208201 0.376769,-0.334283 L 51.31551,47.61711 v 0.618768"
     id="path112"
     style="font-style:normal;font-weight:400;font-size:29.1042px;font-family:'MS Shell Dlg 2';fill:#ffaf00;fill-opacity:1;stroke:none;stroke-width:0.0910443;stroke-linecap:square;stroke-linejoin:bevel;stroke-dasharray:none" /><path
     fill-rule="evenodd"
     vector-effect="none"
     d="M 19.886213,34.13971 V 32.489622"
     id="path124"
     style="font-style:normal;font-weight:400;font-size:29.1042px;font-family:'MS Shell Dlg 2';fill:none;fill-opacity:1;stroke:#000000;stroke-width:0.455222;stroke-linecap:round;stroke-linejoin:bevel;stroke-dasharray:none;stroke-opacity:1" /><path
     fill-rule="evenodd"
     vector-effect="none"
     d="m 45.066194,29.525915 c -0.568158,-5.130114 -6.248356,-9.075422 -13.066224,-9.075422 -6.817867,0 -12.498064,3.945308 -13.066222,9.075422"
     id="path128"
     style="font-style:normal;font-weight:400;font-size:29.1042px;font-family:'MS Shell Dlg 2';fill:none;fill-opacity:1;stroke:#000000;stroke-width:0.455222;stroke-linecap:round;stroke-linejoin:bevel;stroke-dasharray:none;stroke-opacity:1" /><path
     fill-rule="evenodd"
     vector-effect="none"
     d="M 41.271433,37.35165 V 35.701564"
     id="path132"
     style="font-style:normal;font-weight:400;font-size:29.1042px;font-family:'MS Shell Dlg 2';fill:none;fill-opacity:1;stroke:#000000;stroke-width:0.455222;stroke-linecap:round;stroke-linejoin:bevel;stroke-dasharray:none;stroke-opacity:1" /><path
     id="path136"
     style="font-style:normal;font-weight:400;font-size:29.1042px;font-family:'MS Shell Dlg 2';fill:none;fill-opacity:1;stroke:#000000;stroke-width:0.455222;stroke-linecap:round;stroke-linejoin:bevel;stroke-dasharray:none;stroke-opacity:1"
     d="m 41.271433,35.701564 c 2.458949,-1.856699 3.840368,-4.374921 3.840368,-7.000689 m -26.22366,0 c 0,1.300149 0.339137,2.587566 0.998072,3.788747 m 25.225588,-3.788747 c 0,-5.467888 -5.870363,-9.900468 -13.111831,-9.900468 -7.241466,0 -13.111829,4.43258 -13.111829,9.900468"
     class="UnoptimicedTransforms" /><path
     fill-rule="evenodd"
     vector-effect="none"
     d="M 52.088147,43.869034 41.271433,35.701564"
     id="path140"
     style="font-style:normal;font-weight:400;font-size:29.1042px;font-family:'MS Shell Dlg 2';fill:none;fill-opacity:1;stroke:#000000;stroke-width:0.455222;stroke-linecap:round;stroke-linejoin:bevel;stroke-dasharray:none;stroke-opacity:1"
     class="UnoptimicedTransforms" /><path
     id="path152"
     style="font-style:normal;font-weight:400;font-size:29.1042px;font-family:'MS Shell Dlg 2';fill:none;fill-opacity:1;stroke:#000000;stroke-width:0.455222;stroke-linecap:round;stroke-linejoin:bevel;stroke-dasharray:none;stroke-opacity:1"
     d="m 3.5910059,28.700875 c 0,2.816989 0.7349181,5.606385 2.1625779,8.208938 M 60.408936,28.700875 c 0,-11.847079 -12.719131,-21.4510212 -28.408966,-21.4510212 -15.689833,0 -28.4089641,9.6039422 -28.4089641,21.4510212 M 52.088147,43.869034 c 5.327795,-4.022852 8.320789,-9.479002 8.320789,-15.168159"
     class="UnoptimicedTransforms" /><path
     fill-rule="evenodd"
     vector-effect="none"
     d="M 19.886213,32.489622 5.7535838,36.909813"
     id="path156"
     style="font-style:normal;font-weight:400;font-size:29.1042px;font-family:'MS Shell Dlg 2';fill:none;fill-opacity:1;stroke:#000000;stroke-width:0.455222;stroke-linecap:round;stroke-linejoin:bevel;stroke-dasharray:none;stroke-opacity:1"
     class="UnoptimicedTransforms" /><path
     id="path168"
     style="font-style:normal;font-weight:400;font-size:29.1042px;font-family:'MS Shell Dlg 2';fill:none;fill-opacity:1;stroke:#000000;stroke-width:0.455222;stroke-linecap:round;stroke-linejoin:bevel;stroke-dasharray:none;stroke-opacity:1"
     d="m 19.886213,34.13971 c -4.710875,1.4734 -9.421791,2.946671 -14.1326292,4.420189"
     sodipodi:nodetypes="cc" /><path
     fill-rule="evenodd"
     vector-effect="none"
     d="m 5.7535838,36.909813 v 1.650086"
     id="path172"
     style="font-style:normal;font-weight:400;font-size:29.1042px;font-family:'MS Shell Dlg 2';fill:none;fill-opacity:1;stroke:#000000;stroke-width:0.455222;stroke-linecap:round;stroke-linejoin:bevel;stroke-dasharray:none;stroke-opacity:1" /><path
     fill-rule="evenodd"
     vector-effect="none"
     d="m 51.31551,44.935729 0.772637,0.583391"
     id="path180"
     style="font-style:normal;font-weight:400;font-size:29.1042px;font-family:'MS Shell Dlg 2';fill:none;fill-opacity:1;stroke:#000000;stroke-width:0.455222;stroke-linecap:round;stroke-linejoin:bevel;stroke-dasharray:none;stroke-opacity:1" /><path
     fill-rule="evenodd"
     vector-effect="none"
     d="m 42.816684,38.518431 8.498826,6.417298"
     id="path184"
     style="font-style:normal;font-weight:400;font-size:29.1042px;font-family:'MS Shell Dlg 2';fill:none;fill-opacity:1;stroke:#000000;stroke-width:0.455222;stroke-linecap:round;stroke-linejoin:bevel;stroke-dasharray:none;stroke-opacity:1" /><path
     fill-rule="evenodd"
     vector-effect="none"
     d="m 41.271433,37.35165 1.545251,1.166781"
     id="path188"
     style="font-style:normal;font-weight:400;font-size:29.1042px;font-family:'MS Shell Dlg 2';fill:none;fill-opacity:1;stroke:#000000;stroke-width:0.455222;stroke-linecap:round;stroke-linejoin:bevel;stroke-dasharray:none;stroke-opacity:1" /><path
     fill-rule="evenodd"
     vector-effect="none"
     d="M 52.088147,43.869034 V 45.51912"
     id="path196"
     style="font-style:normal;font-weight:400;font-size:29.1042px;font-family:'MS Shell Dlg 2';fill:none;fill-opacity:1;stroke:#000000;stroke-width:0.455222;stroke-linecap:round;stroke-linejoin:bevel;stroke-dasharray:none;stroke-opacity:1" /><path
     id="path200"
     style="font-style:normal;font-weight:400;font-size:29.1042px;font-family:'MS Shell Dlg 2';fill:none;fill-opacity:1;stroke:#000000;stroke-width:0.455222;stroke-linecap:round;stroke-linejoin:bevel;stroke-dasharray:none;stroke-opacity:1"
     d="m 60.408936,28.700875 v 1.650079 M 52.088147,45.51912 c 5.327795,-4.022852 8.320789,-9.479003 8.320789,-15.168166" /><path
     fill-rule="evenodd"
     vector-effect="none"
     d="m 44.695435,31.175993 c -1.494727,-4.371231 -6.716491,-7.425352 -12.695465,-7.425352 -5.978972,0 -11.200736,3.054121 -12.695485,7.425352"
     id="path204"
     style="font-style:normal;font-weight:400;font-size:29.1042px;font-family:'MS Shell Dlg 2';fill:none;fill-opacity:1;stroke:#000000;stroke-width:0.455222;stroke-linecap:round;stroke-linejoin:bevel;stroke-dasharray:none;stroke-opacity:1" /><path
     id="path212"
     style="font-style:normal;font-weight:400;font-size:29.1042px;font-family:'MS Shell Dlg 2';fill:none;fill-opacity:1;stroke:#000000;stroke-width:0.455222;stroke-linecap:round;stroke-linejoin:bevel;stroke-dasharray:none;stroke-opacity:1"
     d="m 24.715432,41.883056 c 0.714114,0.360278 1.473376,0.666722 2.26686,0.914896 m -2.641028,-1.110869 c 0.123207,0.06695 0.247944,0.13229 0.374168,0.195973" /><path
     fill-rule="evenodd"
     vector-effect="none"
     d="M 26.982292,44.448038 V 42.797952"
     id="path216"
     style="font-style:normal;font-weight:400;font-size:29.1042px;font-family:'MS Shell Dlg 2';fill:none;fill-opacity:1;stroke:#000000;stroke-width:0.455222;stroke-linecap:round;stroke-linejoin:bevel;stroke-dasharray:none;stroke-opacity:1" /><path
     fill-rule="evenodd"
     vector-effect="none"
     d="M 44.361914,32.001032 C 42.509736,28.04533 37.556546,25.400727 31.99997,25.400727 c -5.556574,0 -10.509765,2.644603 -12.361942,6.600305"
     id="path220"
     style="font-style:normal;font-weight:400;font-size:29.1042px;font-family:'MS Shell Dlg 2';fill:none;fill-opacity:1;stroke:#000000;stroke-width:0.455222;stroke-linecap:round;stroke-linejoin:bevel;stroke-dasharray:none;stroke-opacity:1" /><path
     fill-rule="evenodd"
     vector-effect="none"
     d="M 41.271433,42.301884 V 40.651798"
     id="path224"
     style="font-style:normal;font-weight:400;font-size:29.1042px;font-family:'MS Shell Dlg 2';fill:#ffff00;fill-opacity:1;stroke:#000000;stroke-width:0.455222;stroke-linecap:round;stroke-linejoin:bevel;stroke-dasharray:none;stroke-opacity:1" /><path
     fill-rule="evenodd"
     vector-effect="none"
     d="m 41.271433,40.651798 c 0.136626,-0.103167 0.270235,-0.208597 0.400676,-0.316221"
     id="path228"
     style="font-style:normal;font-weight:400;font-size:29.1042px;font-family:'MS Shell Dlg 2';fill:none;fill-opacity:1;stroke:#000000;stroke-width:0.455222;stroke-linecap:round;stroke-linejoin:bevel;stroke-dasharray:none;stroke-opacity:1" /><path
     fill-rule="evenodd"
     vector-effect="none"
     d="m 41.271433,40.651798 1.545251,1.166781"
     id="path244"
     style="font-style:normal;font-weight:400;font-size:29.1042px;font-family:'MS Shell Dlg 2';fill:none;fill-opacity:1;stroke:#000000;stroke-width:0.455222;stroke-linecap:round;stroke-linejoin:bevel;stroke-dasharray:none;stroke-opacity:1" /><path
     fill-rule="evenodd"
     vector-effect="none"
     d="m 42.816684,41.818579 8.498826,6.417299"
     id="path248"
     style="font-style:normal;font-weight:400;font-size:29.1042px;font-family:'MS Shell Dlg 2';fill:none;fill-opacity:1;stroke:#000000;stroke-width:0.455222;stroke-linecap:round;stroke-linejoin:bevel;stroke-dasharray:none;stroke-opacity:1" /><path
     fill-rule="evenodd"
     vector-effect="none"
     d="m 51.31551,48.235878 0.772637,0.58339"
     id="path252"
     style="font-style:normal;font-weight:400;font-size:29.1042px;font-family:'MS Shell Dlg 2';fill:none;fill-opacity:1;stroke:#000000;stroke-width:0.455222;stroke-linecap:round;stroke-linejoin:bevel;stroke-dasharray:none;stroke-opacity:1" /><path
     id="path256"
     style="font-style:normal;font-weight:400;font-size:29.1042px;font-family:'MS Shell Dlg 2';fill:none;fill-opacity:1;stroke:#000000;stroke-width:0.455222;stroke-linecap:round;stroke-linejoin:bevel;stroke-dasharray:none;stroke-opacity:1"
     d="m 52.088147,48.819268 c 5.327795,-4.022852 8.320789,-9.479003 8.320789,-15.168159 m 0,0 c 0,-0.103144 -0.0011,-0.206266 -0.0031,-0.309389" /><path
     id="path260"
     style="font-style:normal;font-weight:400;font-size:29.1042px;font-family:'MS Shell Dlg 2';fill:none;fill-opacity:1;stroke:#000000;stroke-width:0.455222;stroke-linecap:round;stroke-linejoin:bevel;stroke-dasharray:none;stroke-opacity:1"
     d="m 16.216802,51.486974 c 1.54724,0.780624 3.192316,1.444592 4.911517,1.982292 M 3.5910059,33.651109 c 0,7.164272 4.7366486,13.855623 12.6257961,17.835865 M 3.5940654,33.34172 c -0.00197,0.103123 -0.00306,0.206245 -0.00306,0.309389" /><path
     id="path272"
     style="font-style:normal;font-weight:400;font-size:29.1042px;font-family:'MS Shell Dlg 2';fill:none;fill-opacity:1;stroke:#000000;stroke-width:0.455222;stroke-linecap:round;stroke-linejoin:bevel;stroke-dasharray:none;stroke-opacity:1"
     d="m 26.982292,42.797952 -0.836272,1.52447 m 0,0 -4.599543,8.384609 m 0,0 -0.418158,0.762235" /><path
     fill-rule="evenodd"
     vector-effect="none"
     d="m 26.982292,44.448038 -5.853973,10.67136"
     id="path276"
     style="font-style:normal;font-weight:400;font-size:29.1042px;font-family:'MS Shell Dlg 2';fill:none;fill-opacity:1;stroke:#000000;stroke-width:0.455222;stroke-linecap:round;stroke-linejoin:bevel;stroke-dasharray:none;stroke-opacity:1" /><path
     fill-rule="evenodd"
     vector-effect="none"
     d="m 21.128319,53.469266 v 1.650132"
     id="path280"
     style="font-style:normal;font-weight:400;font-size:29.1042px;font-family:'MS Shell Dlg 2';fill:none;fill-opacity:1;stroke:#000000;stroke-width:0.455222;stroke-linecap:round;stroke-linejoin:bevel;stroke-dasharray:none;stroke-opacity:1" /><path
     fill-rule="evenodd"
     vector-effect="none"
     d="m 41.271433,42.301884 10.816714,8.16747"
     id="path288"
     style="font-style:normal;font-weight:400;font-size:29.1042px;font-family:'MS Shell Dlg 2';fill:#ffff00;fill-opacity:1;stroke:#000000;stroke-width:0.455222;stroke-linecap:round;stroke-linejoin:bevel;stroke-dasharray:none;stroke-opacity:1" /><path
     fill-rule="evenodd"
     vector-effect="none"
     d="m 52.088147,48.819268 v 1.650086"
     id="path296"
     style="font-style:normal;font-weight:400;font-size:29.1042px;font-family:'MS Shell Dlg 2';fill:#ffff00;fill-opacity:1;stroke:#000000;stroke-width:0.455222;stroke-linecap:round;stroke-linejoin:bevel;stroke-dasharray:none;stroke-opacity:1" /><path
     id="path300"
     style="font-style:normal;font-weight:400;font-size:29.1042px;font-family:'MS Shell Dlg 2';fill:none;fill-opacity:1;stroke:#000000;stroke-width:0.455222;stroke-linecap:round;stroke-linejoin:bevel;stroke-dasharray:none;stroke-opacity:1"
     d="m 60.408936,33.651109 v 1.650086 m -8.320789,15.168159 c 5.327795,-4.022853 8.320789,-9.479003 8.320789,-15.168159" /><path
     fill-rule="evenodd"
     vector-effect="none"
     d="m 51.31551,48.235878 c 0.127032,-0.09591 0.253583,-0.208201 0.376769,-0.334283"
     id="path304"
     style="font-style:normal;font-weight:400;font-size:29.1042px;font-family:'MS Shell Dlg 2';fill:#ffff00;fill-opacity:1;stroke:#000000;stroke-width:0.455222;stroke-linecap:round;stroke-linejoin:bevel;stroke-dasharray:none;stroke-opacity:1" /><path
     fill-rule="evenodd"
     vector-effect="none"
     d="M 51.31551,48.235878 V 47.61711"
     id="path308"
     style="font-style:normal;font-weight:400;font-size:29.1042px;font-family:'MS Shell Dlg 2';fill:none;fill-opacity:1;stroke:#000000;stroke-width:0.455222;stroke-linecap:round;stroke-linejoin:bevel;stroke-dasharray:none;stroke-opacity:1" /><path
     fill-rule="evenodd"
     vector-effect="none"
     d="M 52.088147,48.200501 51.31551,47.61711"
     id="path316"
     style="font-style:normal;font-weight:400;font-size:29.1042px;font-family:'MS Shell Dlg 2';fill:none;fill-opacity:1;stroke:#000000;stroke-width:0.455222;stroke-linecap:round;stroke-linejoin:bevel;stroke-dasharray:none;stroke-opacity:1" /><path
     fill-rule="evenodd"
     vector-effect="none"
     d="M 42.816684,41.199812 41.271433,40.03303"
     id="path320"
     style="font-style:normal;font-weight:400;font-size:29.1042px;font-family:'MS Shell Dlg 2';fill:none;fill-opacity:1;stroke:#000000;stroke-width:0.455222;stroke-linecap:round;stroke-linejoin:bevel;stroke-dasharray:none;stroke-opacity:1" /><path
     fill-rule="evenodd"
     vector-effect="none"
     d="M 44.794254,30.866603 C 43.451909,26.3454 38.136307,23.13185 31.99997,23.13185 c -6.136336,0 -11.451959,3.21355 -12.794282,7.734753"
     id="path324"
     style="font-style:normal;font-weight:400;font-size:29.1042px;font-family:'MS Shell Dlg 2';fill:none;fill-opacity:1;stroke:#000000;stroke-width:0.455222;stroke-linecap:round;stroke-linejoin:bevel;stroke-dasharray:none;stroke-opacity:1" /><path
     fill-rule="evenodd"
     vector-effect="none"
     d="m 16.216802,50.868207 8.49863,-9.603942"
     id="path328"
     style="font-style:normal;font-weight:400;font-size:29.1042px;font-family:'MS Shell Dlg 2';fill:none;fill-opacity:1;stroke:#000000;stroke-width:0.455222;stroke-linecap:round;stroke-linejoin:bevel;stroke-dasharray:none;stroke-opacity:1" /><path
     fill-rule="evenodd"
     vector-effect="none"
     d="M 52.088147,48.200501 V 46.137888"
     id="path340"
     style="font-style:normal;font-weight:400;font-size:29.1042px;font-family:'MS Shell Dlg 2';fill:none;fill-opacity:1;stroke:#000000;stroke-width:0.455222;stroke-linecap:round;stroke-linejoin:bevel;stroke-dasharray:none;stroke-opacity:1" /><path
     fill-rule="evenodd"
     vector-effect="none"
     d="M 52.088147,46.137888 51.31551,45.554497"
     id="path344"
     style="font-style:normal;font-weight:400;font-size:29.1042px;font-family:'MS Shell Dlg 2';fill:none;fill-opacity:1;stroke:#000000;stroke-width:0.455222;stroke-linecap:round;stroke-linejoin:bevel;stroke-dasharray:none;stroke-opacity:1" /><path
     fill-rule="evenodd"
     vector-effect="none"
     d="M 51.31551,45.554497 V 44.935729"
     id="path348"
     style="font-style:normal;font-weight:400;font-size:29.1042px;font-family:'MS Shell Dlg 2';fill:none;fill-opacity:1;stroke:#000000;stroke-width:0.455222;stroke-linecap:round;stroke-linejoin:bevel;stroke-dasharray:none;stroke-opacity:1" /><path
     fill-rule="evenodd"
     vector-effect="none"
     d="M 42.816684,39.137199 41.271433,37.970417"
     id="path356"
     style="font-style:normal;font-weight:400;font-size:29.1042px;font-family:'MS Shell Dlg 2';fill:none;fill-opacity:1;stroke:#000000;stroke-width:0.455222;stroke-linecap:round;stroke-linejoin:bevel;stroke-dasharray:none;stroke-opacity:1" /><path
     fill-rule="evenodd"
     vector-effect="none"
     d="M 41.271433,40.03303 V 37.970417"
     id="path360"
     style="font-style:normal;font-weight:400;font-size:29.1042px;font-family:'MS Shell Dlg 2';fill:none;fill-opacity:1;stroke:#000000;stroke-width:0.455222;stroke-linecap:round;stroke-linejoin:bevel;stroke-dasharray:none;stroke-opacity:1" /><path
     id="path364"
     style="font-style:normal;font-weight:400;font-size:29.1042px;font-family:'MS Shell Dlg 2';fill:none;fill-opacity:1;stroke:#000000;stroke-width:0.455222;stroke-linecap:round;stroke-linejoin:bevel;stroke-dasharray:none;stroke-opacity:1"
     d="m 60.408936,33.032332 v -2.062599 m -8.320789,17.230768 c 5.327795,-4.022853 8.320789,-9.479003 8.320789,-15.168169" /><path
     fill-rule="evenodd"
     vector-effect="none"
     d="m 41.271433,37.970417 c 0.136626,-0.103167 0.270235,-0.208597 0.400676,-0.316221"
     id="path372"
     style="font-style:normal;font-weight:400;font-size:29.1042px;font-family:'MS Shell Dlg 2';fill:none;fill-opacity:1;stroke:#000000;stroke-width:0.455222;stroke-linecap:round;stroke-linejoin:bevel;stroke-dasharray:none;stroke-opacity:1" /><path
     fill-rule="evenodd"
     vector-effect="none"
     d="m 45.025438,29.835304 c -0.763153,-4.995846 -6.365269,-8.766043 -13.025468,-8.766043 -6.660197,0 -12.262314,3.770197 -13.025466,8.766043"
     id="path376"
     style="font-style:normal;font-weight:400;font-size:29.1042px;font-family:'MS Shell Dlg 2';fill:none;fill-opacity:1;stroke:#000000;stroke-width:0.455222;stroke-linecap:round;stroke-linejoin:bevel;stroke-dasharray:none;stroke-opacity:1" /><path
     fill-rule="evenodd"
     vector-effect="none"
     d="m 19.6167,34.223999 c 0.937408,2.03377 2.727457,3.781305 5.098732,4.977676"
     id="path380"
     style="font-style:normal;font-weight:400;font-size:29.1042px;font-family:'MS Shell Dlg 2';fill:none;fill-opacity:1;stroke:#000000;stroke-width:0.455222;stroke-linecap:round;stroke-linejoin:bevel;stroke-dasharray:none;stroke-opacity:1" /><path
     fill-rule="evenodd"
     vector-effect="none"
     d="m 24.715432,41.264265 v -2.06259"
     id="path384"
     style="font-style:normal;font-weight:400;font-size:29.1042px;font-family:'MS Shell Dlg 2';fill:none;fill-opacity:1;stroke:#000000;stroke-width:0.455222;stroke-linecap:round;stroke-linejoin:bevel;stroke-dasharray:none;stroke-opacity:1" /><path
     fill-rule="evenodd"
     vector-effect="none"
     d="M 16.216802,50.868207 V 48.805594"
     id="path388"
     style="font-style:normal;font-weight:400;font-size:29.1042px;font-family:'MS Shell Dlg 2';fill:none;fill-opacity:1;stroke:#000000;stroke-width:0.455222;stroke-linecap:round;stroke-linejoin:bevel;stroke-dasharray:none;stroke-opacity:1" /><path
     fill-rule="evenodd"
     vector-effect="none"
     d="m 16.216802,48.805594 8.49863,-9.603919"
     id="path392"
     style="font-style:normal;font-weight:400;font-size:29.1042px;font-family:'MS Shell Dlg 2';fill:none;fill-opacity:1;stroke:#000000;stroke-width:0.455222;stroke-linecap:round;stroke-linejoin:bevel;stroke-dasharray:none;stroke-opacity:1" /><path
     id="path396"
     style="font-style:normal;font-weight:400;font-size:29.1042px;font-family:'MS Shell Dlg 2';fill:none;fill-opacity:1;stroke:#000000;stroke-width:0.455222;stroke-linecap:round;stroke-linejoin:bevel;stroke-dasharray:none;stroke-opacity:1"
     d="m 60.408936,30.969733 c 0,-0.103134 -0.0011,-0.206266 -0.0031,-0.309389 m -8.317689,15.477544 c 5.327795,-4.022853 8.320789,-9.47898 8.320789,-15.168155" /><path
     id="path404"
     style="font-style:normal;font-weight:400;font-size:29.1042px;font-family:'MS Shell Dlg 2';fill:none;fill-opacity:1;stroke:#000000;stroke-width:0.455222;stroke-linecap:round;stroke-linejoin:bevel;stroke-dasharray:none;stroke-opacity:1"
     d="m 3.5910059,30.969733 c 0,7.164267 4.7366486,13.855619 12.6257961,17.835861 M 3.5940654,30.660344 c -0.00197,0.103123 -0.00306,0.206255 -0.00306,0.309389" /><path
     fill-rule="evenodd"
     vector-effect="none"
     d="m 51.31551,45.554497 0.409745,-0.309384"
     id="path408"
     style="font-style:normal;font-weight:400;font-size:29.1042px;font-family:'MS Shell Dlg 2';fill:none;fill-opacity:1;stroke:#000000;stroke-width:0.455222;stroke-linecap:round;stroke-linejoin:bevel;stroke-dasharray:none;stroke-opacity:1" /><path
     fill-rule="evenodd"
     vector-effect="none"
     d="m 19.977013,38.226386 -8.498848,6.417298"
     id="path412"
     style="font-style:normal;font-weight:400;font-size:29.1042px;font-family:'MS Shell Dlg 2';fill:none;fill-opacity:1;stroke:#000000;stroke-width:0.455222;stroke-linecap:round;stroke-linejoin:bevel;stroke-dasharray:none;stroke-opacity:1" /><path
     fill-rule="evenodd"
     vector-effect="none"
     d="M 22.389524,40.048012 13.890676,46.46531"
     id="path416"
     style="font-style:normal;font-weight:400;font-size:29.1042px;font-family:'MS Shell Dlg 2';fill:none;fill-opacity:1;stroke:#000000;stroke-width:0.455222;stroke-linecap:round;stroke-linejoin:bevel;stroke-dasharray:none;stroke-opacity:1" /><path
     fill-rule="evenodd"
     vector-effect="none"
     d="m 11.478165,44.643684 2.412511,1.821626"
     id="path420"
     style="font-style:normal;font-weight:400;font-size:29.1042px;font-family:'MS Shell Dlg 2';opacity:1;fill:none;fill-opacity:1;stroke:#000000;stroke-width:0.455222;stroke-linecap:round;stroke-linejoin:bevel;stroke-dasharray:none;stroke-opacity:1" /><path
     fill-rule="evenodd"
     vector-effect="none"
     d="M 18.52007,36.579987 7.4157268,40.053006"
     id="path424"
     style="font-style:normal;font-weight:400;font-size:29.1042px;font-family:'MS Shell Dlg 2';fill:none;fill-opacity:1;stroke:#000000;stroke-width:0.455222;stroke-linecap:round;stroke-linejoin:bevel;stroke-dasharray:none;stroke-opacity:1" /><path
     fill-rule="evenodd"
     vector-effect="none"
     d="m 6.4732047,38.334803 0.9425221,1.718203"
     id="path428"
     style="font-style:normal;font-weight:400;font-size:29.1042px;font-family:'MS Shell Dlg 2';fill:none;fill-opacity:1;stroke:#000000;stroke-width:0.455222;stroke-linecap:round;stroke-linejoin:bevel;stroke-dasharray:none;stroke-opacity:1" /><path
     id="path436"
     style="font-style:normal;font-weight:400;font-size:29.1042px;font-family:'MS Shell Dlg 2';fill:none;fill-opacity:1;stroke:#000000;stroke-width:0.455222;stroke-linecap:round;stroke-linejoin:bevel;stroke-dasharray:none;stroke-opacity:1"
     d="m 21.183258,38.518431 c -0.469207,-0.354305 -0.912999,-0.461742 -1.206245,-0.292045 m 2.412511,1.821626 c -0.293268,-0.612537 -0.73706,-1.175299 -1.206266,-1.529581" /><path
     id="path444"
     style="font-style:normal;font-weight:400;font-size:29.1042px;font-family:'MS Shell Dlg 2';opacity:1;fill:none;fill-opacity:1;stroke:#000000;stroke-width:0.455222;stroke-linecap:round;stroke-linejoin:bevel;stroke-dasharray:none;stroke-opacity:1"
     d="M 13.890676,46.46531 C 13.59743,45.852773 13.153638,45.290011 12.68441,44.935729 m 0,0 c -0.184408,-0.139249 -0.36489,-0.240365 -0.53385,-0.301512 -0.260942,-0.09443 -0.494401,-0.09354 -0.672395,0.0095" /><path
     fill-rule="evenodd"
     vector-effect="none"
     d="M 18.52007,36.579987 C 18.361373,35.899543 18.121186,35.234058 17.867254,34.771149"
     id="path448"
     style="font-style:normal;font-weight:400;font-size:29.1042px;font-family:'MS Shell Dlg 2';fill:none;fill-opacity:1;stroke:#000000;stroke-width:0.455222;stroke-linecap:round;stroke-linejoin:bevel;stroke-dasharray:none;stroke-opacity:1" /><path
     fill-rule="evenodd"
     vector-effect="none"
     d="M 7.4157268,40.053006 C 7.2570736,39.372562 7.0169086,38.707076 6.7629761,38.244168"
     id="path452"
     style="font-style:normal;font-weight:400;font-size:29.1042px;font-family:'MS Shell Dlg 2';fill:none;fill-opacity:1;stroke:#000000;stroke-width:0.455222;stroke-linecap:round;stroke-linejoin:bevel;stroke-dasharray:none;stroke-opacity:1" /><path
     id="path456"
     style="font-style:normal;font-weight:400;font-size:29.1042px;font-family:'MS Shell Dlg 2';fill:none;fill-opacity:1;stroke:#000000;stroke-width:0.455222;stroke-linecap:round;stroke-linejoin:bevel;stroke-dasharray:none;stroke-opacity:1"
     d="m 3.5910059,28.700875 v 1.650079 m 0,0 c 0,2.816988 0.7349181,5.606392 2.1625779,8.208945" /><path
     id="path460"
     style="font-style:normal;font-weight:400;font-size:29.1042px;font-family:'MS Shell Dlg 2';fill:none;fill-opacity:1;stroke:#000000;stroke-width:0.455222;stroke-linecap:round;stroke-linejoin:bevel;stroke-dasharray:none;stroke-opacity:1"
     d="m 3.5910059,33.651109 v 1.650086 m 0,0 c 0,8.676117 6.9216261,16.49794 17.5373131,19.818203" /><path
     id="path464"
     style="font-style:normal;font-weight:400;font-size:29.1042px;font-family:'MS Shell Dlg 2';fill:none;fill-opacity:1;stroke:#000000;stroke-width:0.455222;stroke-linecap:round;stroke-linejoin:bevel;stroke-dasharray:none;stroke-opacity:1"
     d="m 3.5910059,33.032332 v -2.062599 m 0,2.062599 c 0,7.164258 4.7366486,13.85561 12.6257961,17.835875" /><path
     id="path468"
     style="font-style:normal;font-weight:400;font-size:29.1042px;font-family:'MS Shell Dlg 2';fill:none;fill-opacity:1;stroke:#000000;stroke-width:0.455222;stroke-linecap:round;stroke-linejoin:bevel;stroke-dasharray:none;stroke-opacity:1"
     d="m 42.816684,38.518431 v 0.618768 2.062613 0.618767"
     sodipodi:nodetypes="cccc" /><path
     fill-rule="evenodd"
     vector-effect="none"
     d="M 51.31551,45.554497 V 47.61711"
     id="path472"
     style="font-style:normal;font-weight:400;font-size:29.1042px;font-family:'MS Shell Dlg 2';fill:none;fill-opacity:1;stroke:#000000;stroke-width:0.455222;stroke-linecap:round;stroke-linejoin:bevel;stroke-dasharray:none;stroke-opacity:1" /></g><path
   inkscape:original-d="M 0,0"
   inkscape:path-effect="#path-effect36343"
   d="M 0,0"
   id="path36345"
   class="UnoptimicedTransforms" /></svg>
