<?xml version="1.0" encoding="UTF-8" standalone="no"?>
<svg
   viewBox="0 0 64 63.999997"
   height="64"
   width="64"
   xml:space="preserve"
   id="svg4485"
   version="1.1"
   sodipodi:docname="BearLMxUU.svg"
   inkscape:version="1.2.2 (732a01da63, 2022-12-09)"
   xmlns:inkscape="http://www.inkscape.org/namespaces/inkscape"
   xmlns:sodipodi="http://sodipodi.sourceforge.net/DTD/sodipodi-0.dtd"
   xmlns:xlink="http://www.w3.org/1999/xlink"
   xmlns="http://www.w3.org/2000/svg"
   xmlns:svg="http://www.w3.org/2000/svg"
   xmlns:rdf="http://www.w3.org/1999/02/22-rdf-syntax-ns#"
   xmlns:cc="http://creativecommons.org/ns#"
   xmlns:dc="http://purl.org/dc/elements/1.1/">
    <sodipodi:namedview
   pagecolor="#ffffff"
   bordercolor="#666666"
   borderopacity="1"
   objecttolerance="10"
   gridtolerance="10"
   guidetolerance="10"
   inkscape:pageopacity="0"
   inkscape:pageshadow="2"
   inkscape:window-width="1857"
   inkscape:window-height="1057"
   id="namedview449"
   showgrid="false"
   inkscape:zoom="8"
   inkscape:cx="32.1875"
   inkscape:cy="34.125"
   inkscape:window-x="55"
   inkscape:window-y="-8"
   inkscape:window-maximized="1"
   inkscape:current-layer="svg4485"
   inkscape:showpageshadow="2"
   inkscape:pagecheckerboard="0"
   inkscape:deskcolor="#d1d1d1"
   showguides="false" />
    <metadata
   id="metadata4491">
        <rdf:RDF>
            <cc:Work
   rdf:about="">
                <dc:format>image/svg+xml</dc:format>
                <dc:type
   rdf:resource="http://purl.org/dc/dcmitype/StillImage" />
                <dc:title />
            </cc:Work>
        </rdf:RDF>
    </metadata>
    <defs
   id="defs4489">
        <linearGradient
   gradientUnits="userSpaceOnUse"
   y2="60.289665"
   x2="3.7103343"
   y1="40.950954"
   x1="46.32296"
   id="linearGradient7549"
   xlink:href="#linearGradient7547" />
        <linearGradient
   id="linearGradient7547">
            <stop
   id="stop7543"
   offset="0"
   style="stop-color:#37c837;stop-opacity:1;" />
            <stop
   id="stop7545"
   offset="1"
   style="stop-color:#37c837;stop-opacity:0;" />
        </linearGradient>
        <linearGradient
   gradientUnits="userSpaceOnUse"
   y2="43.874249"
   x2="-5.5092831"
   y1="15.765656"
   x1="56.891792"
   id="linearGradient7533"
   xlink:href="#linearGradient7547" />
        <linearGradient
   gradientUnits="userSpaceOnUse"
   y2="32.63081"
   x2="-2.9232936"
   y1="6.3211684"
   x1="39.5769"
   id="linearGradient7541"
   xlink:href="#linearGradient7547" />
    </defs>
    
    
    
    
    
    
    
    
    
    
    
<g
   fill="none"
   stroke-linecap="round"
   font-size="29.1042px"
   stroke="#000000"
   font-weight="400"
   stroke-opacity="1"
   stroke-width="12.6581"
   transform="matrix(0.07482046,0,0,0.07335737,37.388426,32.459574)"
   font-family="'MS Shell Dlg 2'"
   font-style="normal"
   stroke-linejoin="bevel"
   id="g22169"
   style="fill-rule:evenodd;stroke-width:1.34979538;stroke-dasharray:none;opacity:1;fill:#ffaf00;fill-opacity:1"><path
     vector-effect="none"
     fill-rule="evenodd"
     d="m -196.305,270.449 170.180593,33.76518 58.527,10.01303 c 71.207997,12.18354 145.066997,-12.30639 203.219997,-67.3836 58.153,-55.0762 95.141,-135.56921 101.772,-221.472894 11.979,-155.208866 -76.623,-289.787236 -205.281,-311.800046 L 73.587593,-296.44236 -96.5931,-321.208 l -87.41274,-12.22562 c -139.63034,-19.86581 -273.16118,87.23173 -300.69618,249.794669 -27.534,162.562742 63.41812,308.526811 201.454,336.486561 z"
     id="path22167"
     style="stroke-width:1.3498;stroke-dasharray:none;fill:#ffaf00;fill-opacity:1"
     sodipodi:nodetypes="cccccccccccc" /></g><g
   fill="none"
   stroke-linecap="round"
   font-size="29.1042px"
   stroke="#000000"
   font-weight="400"
   stroke-opacity="1"
   stroke-width="12.6581"
   transform="matrix(0.07482046,0,0,0.07447319,25.988451,30.586513)"
   font-family="'MS Shell Dlg 2'"
   font-style="normal"
   stroke-linejoin="bevel"
   id="g138"
   style="fill-rule:evenodd;stroke-width:6.69822665;stroke-dasharray:none"><path
     vector-effect="none"
     fill-rule="evenodd"
     d="M 38.2035,5.73949 C 15.258,141.891 89.992864,264.12251 199.599,286.342 258.138,294.02 318.087,272.72 365.067,227.553 412.046,182.386 441.816,117.427 447.236,48.2582 456.988,-76.1976 386.69,-184.996 282.652,-206.467 171.47991,-221.02853 61.149,-130.412 38.2035,5.73949 Z"
     id="path10769"
     style="opacity:1;stroke-width:6.69822665;stroke-dasharray:none;fill:#91786e;fill-opacity:1"
     sodipodi:nodetypes="sccccs" /><path
     vector-effect="none"
     fill-rule="evenodd"
     d="M 289.175,-205.49 C 173.513,-224.982 61.149,-130.412 38.2035,5.73949 15.258,141.891 90.4197,268.065 206.082,287.557"
     id="path136"
     style="stroke-width:6.69822665;stroke-dasharray:none;opacity:1" /></g><g
   fill="#ffffff"
   fill-opacity="1"
   font-size="29.1042px"
   stroke="none"
   font-weight="400"
   transform="matrix(0.07482046,0,0,0.07447319,25.988451,30.586513)"
   font-family="'MS Shell Dlg 2'"
   font-style="normal"
   id="g30"
   style="fill-rule:evenodd;stroke-width:2.67929066;stroke-linecap:square;stroke-linejoin:bevel;stroke-dasharray:none"><path
     vector-effect="non-scaling-stroke"
     fill-rule="evenodd"
     d="M 396.458,47.6251 C 403.446,-41.557 351.761,-118.885 276.711,-131.533 l -13.006,-2.192 C 182.741,-147.369 104.087,-81.17 88.0251,14.1359 71.9632,109.442 124.576,197.764 205.54,211.408 l 13.006,2.192 -13.006,-2.192 C 124.576,197.764 71.9632,109.442 88.0251,14.1359 104.087,-81.17 182.741,-147.369 263.705,-133.725 l 13.006,2.192 C 195.747,-145.178 117.093,-78.9781 101.031,16.3277 84.9691,111.634 137.582,199.955 218.546,213.6 c 41.538,7.001 84.622,-7.071 118.545,-38.718 C 371.014,143.236 392.59,96.9851 396.458,47.6251 403.446,-41.557 351.761,-118.885 276.711,-131.533 195.747,-145.178 117.093,-78.9781 101.031,16.3277 84.9691,111.634 137.582,199.955 218.546,213.6 c 41.538,7.001 84.622,-7.071 118.545,-38.718 33.923,-31.646 55.499,-77.8969 59.367,-127.2569"
     id="path28"
     style="stroke-width:2.67929066;stroke-dasharray:none" /></g><g
   fill="none"
   stroke-linecap="round"
   font-size="29.1042px"
   stroke="#000000"
   font-weight="400"
   stroke-opacity="1"
   stroke-width="12.6581"
   transform="matrix(0.07482046,0,0,0.07447319,25.988451,30.586513)"
   font-family="'MS Shell Dlg 2'"
   font-style="normal"
   stroke-linejoin="bevel"
   id="g19752"
   style="fill-rule:evenodd;stroke-width:1.33964533;stroke-dasharray:none;opacity:1;fill:#ffaf00;fill-opacity:1"><path
     vector-effect="none"
     fill-rule="evenodd"
     d="m 259.416,-108.278 c -59.47742,-2.98901 -123.675,46.4444 -137.443,128.1352 -13.767,81.6908 30.04825,148.93489 87.855,166.1048 70.484,3.178 132.892,-61.157 139.357,-143.6622 5.53,-70.5772 -31.914,-133.3854 -89.769,-150.5778 z"
     id="path19750"
     style="stroke-width:1.33965;stroke-dasharray:none;fill:#ffaf00;fill-opacity:1"
     sodipodi:nodetypes="ccccc" /></g><g
   fill="none"
   stroke-linecap="round"
   font-size="29.1042px"
   stroke="#000000"
   font-weight="400"
   stroke-opacity="1"
   stroke-width="12.6581"
   transform="matrix(0.07482046,0,0,0.07335737,37.388426,32.459574)"
   font-family="'MS Shell Dlg 2'"
   font-style="normal"
   stroke-linejoin="bevel"
   id="g74"
   style="fill-rule:evenodd;stroke-width:6.74897689;stroke-dasharray:none;opacity:1"><path
     vector-effect="none"
     fill-rule="evenodd"
     d="m -184.00584,-333.43362 c -139.63034,-19.86581 -273.16118,87.23173 -300.69618,249.794669 -27.534,162.562742 63.41812,308.526811 201.454,336.486561"
     id="path72"
     style="stroke-width:6.74897689;stroke-dasharray:none"
     sodipodi:nodetypes="ccc" /><path
     vector-effect="none"
     fill-rule="evenodd"
     d="m -184.00584,-333.43362 c -139.63034,-19.86581 -273.16118,87.23173 -300.69618,249.794669 -27.534,162.562742 63.41812,308.526811 201.454,336.486561"
     id="path21936"
     style="stroke-width:6.74897689;stroke-dasharray:none"
     sodipodi:nodetypes="ccc" /></g><g
   fill="none"
   stroke-linecap="round"
   font-size="29.1042px"
   stroke="#000000"
   font-weight="400"
   stroke-opacity="1"
   stroke-width="12.6581"
   transform="matrix(0.07482046,0,0,0.07335737,37.388426,32.459574)"
   font-family="'MS Shell Dlg 2'"
   font-style="normal"
   stroke-linejoin="bevel"
   id="g82"
   style="fill-rule:evenodd;stroke-width:6.74897689;stroke-dasharray:none;opacity:1"><path
     vector-effect="none"
     fill-rule="evenodd"
     d="m -113.2088,-322.99432 c -143.16413,-22.80109 -282.782,70.6853 -313.22198,250.013115 -30.40561,188.306625 80.54109,317.596985 215.69942,340.083305"
     id="path80"
     style="stroke-width:6.74897689;stroke-dasharray:none"
     sodipodi:nodetypes="ccc" /></g><g
   fill="none"
   stroke-linecap="round"
   font-size="29.1042px"
   stroke="#000000"
   font-weight="400"
   stroke-opacity="1"
   stroke-width="12.6581"
   transform="matrix(0.07482046,0,0,0.07335737,37.388426,32.459574)"
   font-family="'MS Shell Dlg 2'"
   font-style="normal"
   stroke-linejoin="bevel"
   id="g90"
   style="fill-rule:evenodd;stroke-width:6.74897689;stroke-dasharray:none"><path
     vector-effect="none"
     fill-rule="evenodd"
     d="m -205.455,-312.083 c -105.034,21.83 -189.848,119.077 -210.445,241.2928 -20.597,122.2162 32.94992,251.99587 129.23327,302.23626"
     id="path88"
     style="stroke-width:6.74897689;stroke-dasharray:none"
     sodipodi:nodetypes="csc" /></g><g
   fill="none"
   stroke-linecap="round"
   font-size="29.1042px"
   stroke="#000000"
   font-weight="400"
   stroke-opacity="1"
   stroke-width="12.6581"
   transform="matrix(0.07482046,0,0,0.07335737,37.388426,32.459574)"
   font-family="'MS Shell Dlg 2'"
   font-style="normal"
   stroke-linejoin="bevel"
   id="g94"
   style="fill-rule:evenodd;stroke-width:6.74897689;stroke-dasharray:none;opacity:1"><path
     vector-effect="none"
     fill-rule="evenodd"
     d="m -96.5931,-321.208 c -146.52173,-20.62202 -273.6309,90.094 -301.1649,253.4752 -27.535,163.3815 62.80667,310.57365 201.453,338.1818"
     id="path92"
     style="stroke-width:6.74897689;stroke-dasharray:none"
     sodipodi:nodetypes="ccc" /></g><g
   fill="none"
   stroke-linecap="round"
   font-size="29.1042px"
   stroke="#000000"
   font-weight="400"
   stroke-opacity="1"
   stroke-width="12.6581"
   transform="matrix(0.07482046,0,0,0.07447319,25.988451,30.586513)"
   font-family="'MS Shell Dlg 2'"
   font-style="normal"
   stroke-linejoin="bevel"
   id="g102"
   style="fill-rule:evenodd;stroke-width:2.67929066;stroke-dasharray:none;opacity:0.3" /><g
   fill="none"
   stroke-linecap="round"
   font-size="29.1042px"
   stroke="#000000"
   font-weight="400"
   stroke-opacity="1"
   stroke-width="12.6581"
   transform="matrix(0.07482046,0,0,0.07447319,25.988451,30.586513)"
   font-family="'MS Shell Dlg 2'"
   font-style="normal"
   stroke-linejoin="bevel"
   id="g110"
   style="fill-rule:evenodd;stroke-width:6.69822665;stroke-dasharray:none"><path
     vector-effect="none"
     fill-rule="evenodd"
     d="M 117.089,-257.724 C 12.0561,-235.895 -72.7582,-138.648 -93.3552,-16.432 -113.952,105.784 -65.6952,225.457 26.382,280.506"
     id="path108"
     style="stroke-width:6.69822665;stroke-dasharray:none" /></g><g
   fill="none"
   stroke-linecap="round"
   font-size="29.1042px"
   stroke="#000000"
   font-weight="400"
   stroke-opacity="1"
   stroke-width="12.6581"
   transform="matrix(0.07482046,0,0,0.07447319,25.988451,30.586513)"
   font-family="'MS Shell Dlg 2'"
   font-style="normal"
   stroke-linejoin="bevel"
   id="g114"
   style="fill-rule:evenodd;stroke-width:6.69822665;stroke-dasharray:none;opacity:1"><path
     vector-effect="none"
     fill-rule="evenodd"
     d="M 225.952,-266.85 C 87.1573,-290.241 -47.679,-176.756 -75.2136,-13.3746 -102.748,150.007 -12.5541,301.416 126.24,324.807"
     id="path112"
     style="stroke-width:6.69822665;stroke-dasharray:none" /></g><g
   fill="none"
   stroke-linecap="round"
   font-size="29.1042px"
   stroke="#000000"
   font-weight="400"
   stroke-opacity="1"
   stroke-width="12.6581"
   transform="matrix(0.07482046,0,0,0.07447319,25.988451,30.586513)"
   font-family="'MS Shell Dlg 2'"
   font-style="normal"
   stroke-linejoin="bevel"
   id="g118"
   style="fill-rule:evenodd;stroke-width:6.69822665;stroke-dasharray:none;opacity:1"><path
     vector-effect="none"
     fill-rule="evenodd"
     d="M 489.759,50.1414 C 501.738,-102.742 413.136,-235.304 284.478,-256.987"
     id="path116"
     style="stroke-width:6.69822665;stroke-dasharray:none" /></g><g
   fill="none"
   stroke-linecap="round"
   font-size="29.1042px"
   stroke="#000000"
   font-weight="400"
   stroke-opacity="1"
   stroke-width="12.6581"
   transform="matrix(0.07482046,0,0,0.07447319,25.988451,30.586513)"
   font-family="'MS Shell Dlg 2'"
   font-style="normal"
   stroke-linejoin="bevel"
   id="g122"
   style="fill-rule:evenodd;stroke-width:6.69822665;stroke-dasharray:none;opacity:1"><path
     vector-effect="none"
     fill-rule="evenodd"
     d="M 284.478,-256.987 C 145.684,-280.377 10.8473,-166.893 -16.6873,-3.51121 -44.2218,159.87 45.9721,311.279 184.767,334.67"
     id="path120"
     style="stroke-width:6.69822665;stroke-dasharray:none" /></g><g
   fill="none"
   stroke-linecap="round"
   font-size="29.1042px"
   stroke="#000000"
   font-weight="400"
   stroke-opacity="1"
   stroke-width="12.6581"
   transform="matrix(0.07482046,0,0,0.07447319,25.988451,30.586513)"
   font-family="'MS Shell Dlg 2'"
   font-style="normal"
   stroke-linejoin="bevel"
   id="g126"
   style="fill-rule:evenodd;stroke-width:6.69822665;stroke-dasharray:none;opacity:1"><path
     vector-effect="none"
     fill-rule="evenodd"
     d="m 184.767,334.67 c 71.208,12.001 145.067,-12.122 203.22,-66.374 58.153,-54.251 95.141,-133.538 101.772,-218.1546"
     id="path124"
     style="stroke-width:6.69822665;stroke-dasharray:none" /></g><g
   fill="none"
   stroke-linecap="round"
   font-size="29.1042px"
   stroke="#000000"
   font-weight="400"
   stroke-opacity="1"
   stroke-width="12.6581"
   transform="matrix(0.07482046,0,0,0.07447319,25.988451,30.586513)"
   font-family="'MS Shell Dlg 2'"
   font-style="normal"
   stroke-linejoin="bevel"
   id="g130"
   style="fill-rule:evenodd;stroke-width:6.69822665;stroke-dasharray:none"><path
     vector-effect="none"
     fill-rule="evenodd"
     d="M 201.927,312.21 C 329.155,333.651 452.755,229.624 477.995,79.8573 503.235,-69.9091 420.558,-208.701 293.329,-230.142 m 0,0 C 166.101,-251.584 42.501,-147.556 17.261,2.21008 -7.97898,151.976 74.6988,290.768 201.927,312.21"
     id="path128"
     style="stroke-width:6.69822665;stroke-dasharray:none" /></g><g
   fill="none"
   stroke-linecap="round"
   font-size="29.1042px"
   stroke="#000000"
   font-weight="400"
   stroke-opacity="1"
   stroke-width="12.6581"
   transform="matrix(0.07482046,0,0,0.07447319,25.988451,30.586513)"
   font-family="'MS Shell Dlg 2'"
   font-style="normal"
   stroke-linejoin="bevel"
   id="g134"
   style="fill-rule:evenodd;stroke-width:6.69822665;stroke-dasharray:none"><path
     vector-effect="none"
     fill-rule="evenodd"
     d="M 460.242,50.45 C 470.225,-76.953 396.389,-187.421 289.175,-205.49"
     id="path132"
     style="stroke-width:6.69822665;stroke-dasharray:none;opacity:1" /></g><g
   fill="none"
   stroke-linecap="round"
   font-size="29.1042px"
   stroke="#000000"
   font-weight="400"
   stroke-opacity="1"
   stroke-width="12.6581"
   transform="matrix(0.07482046,0,0,0.07447319,25.988451,30.586513)"
   font-family="'MS Shell Dlg 2'"
   font-style="normal"
   stroke-linejoin="bevel"
   id="g142"
   style="fill-rule:evenodd;stroke-width:6.69822665;stroke-dasharray:none"><path
     vector-effect="none"
     fill-rule="evenodd"
     d="m 206.082,287.557 c 59.34,10.001 120.889,-10.102 169.35,-55.311 48.461,-45.21 79.285,-111.282 84.81,-181.796"
     id="path140"
     style="stroke-width:6.69822665;stroke-dasharray:none;opacity:1" /></g><g
   fill="none"
   stroke-linecap="round"
   font-size="29.1042px"
   stroke="#000000"
   font-weight="400"
   stroke-opacity="1"
   stroke-width="12.6581"
   transform="matrix(0.07482046,0,0,0.07447319,25.988451,30.586513)"
   font-family="'MS Shell Dlg 2'"
   font-style="normal"
   stroke-linejoin="bevel"
   id="g146"
   style="fill-rule:evenodd;stroke-width:2.67929066;stroke-dasharray:none"><path
     vector-effect="none"
     fill-rule="evenodd"
     d="M 447.236,48.2582 C 456.988,-76.1976 386.69,-184.996 282.652,-206.467"
     id="path144"
     style="stroke-width:2.67929066;stroke-dasharray:none;opacity:1" /></g><g
   fill="none"
   stroke-linecap="round"
   font-size="29.1042px"
   stroke="#000000"
   font-weight="400"
   stroke-opacity="1"
   stroke-width="12.6581"
   transform="matrix(0.07482046,0,0,0.07447319,25.988451,30.586513)"
   font-family="'MS Shell Dlg 2'"
   font-style="normal"
   stroke-linejoin="bevel"
   id="g150"
   style="fill-rule:evenodd;stroke-width:2.67929066;stroke-dasharray:none"><path
     vector-effect="none"
     fill-rule="evenodd"
     d="m 199.599,286.342 c 58.539,7.678 118.488,-13.622 165.468,-58.789 46.979,-45.167 76.749,-110.126 82.169,-179.2948"
     id="path148"
     style="stroke-width:2.67929066;stroke-dasharray:none;opacity:1" /></g><g
   fill="none"
   stroke-linecap="round"
   font-size="29.1042px"
   stroke="#000000"
   font-weight="400"
   stroke-opacity="1"
   stroke-width="12.6581"
   transform="matrix(0.07482046,0,0,0.07447319,25.988451,30.586513)"
   font-family="'MS Shell Dlg 2'"
   font-style="normal"
   stroke-linejoin="bevel"
   id="g154"
   style="fill-rule:evenodd;stroke-width:6.69822665;stroke-dasharray:none"><path
     vector-effect="none"
     fill-rule="evenodd"
     d="M 263.705,-133.725 C 182.741,-147.369 104.087,-81.17 88.0251,14.1359 71.9632,109.442 124.576,197.764 205.54,211.408"
     id="path152"
     style="stroke-width:6.69822665;stroke-dasharray:none" /></g><g
   fill="none"
   stroke-linecap="round"
   font-size="29.1042px"
   stroke="#000000"
   font-weight="400"
   stroke-opacity="1"
   stroke-width="12.6581"
   transform="matrix(0.07482046,0,0,0.07447319,25.988451,30.586513)"
   font-family="'MS Shell Dlg 2'"
   font-style="normal"
   stroke-linejoin="bevel"
   id="g158"
   style="fill-rule:evenodd;stroke-width:6.69822665;stroke-dasharray:none"><path
     vector-effect="none"
     fill-rule="evenodd"
     d="M 396.458,47.6251 C 403.446,-41.557 351.761,-118.885 276.711,-131.533"
     id="path156"
     style="stroke-width:6.69822665;stroke-dasharray:none" /></g><g
   fill="none"
   stroke-linecap="round"
   font-size="29.1042px"
   stroke="#000000"
   font-weight="400"
   stroke-opacity="1"
   stroke-width="12.6581"
   transform="matrix(0.07482046,0,0,0.07447319,25.988451,30.586513)"
   font-family="'MS Shell Dlg 2'"
   font-style="normal"
   stroke-linejoin="bevel"
   id="g162"
   style="fill-rule:evenodd;stroke-width:6.69822665;stroke-dasharray:none"><path
     vector-effect="none"
     fill-rule="evenodd"
     d="M 276.711,-131.533 C 195.747,-145.178 117.093,-78.9781 101.031,16.3277 84.9691,111.634 137.582,199.955 218.546,213.6"
     id="path160"
     style="stroke-width:6.69822665;stroke-dasharray:none" /></g><g
   fill="none"
   stroke-linecap="round"
   font-size="29.1042px"
   stroke="#000000"
   font-weight="400"
   stroke-opacity="1"
   stroke-width="12.6581"
   transform="matrix(0.07482046,0,0,0.07447319,25.988451,30.586513)"
   font-family="'MS Shell Dlg 2'"
   font-style="normal"
   stroke-linejoin="bevel"
   id="g166"
   style="fill-rule:evenodd;stroke-width:6.69822665;stroke-dasharray:none"><path
     vector-effect="none"
     fill-rule="evenodd"
     d="m 218.546,213.6 c 41.538,7.001 84.622,-7.071 118.545,-38.718 33.923,-31.646 55.499,-77.8969 59.367,-127.2569"
     id="path164"
     style="stroke-width:6.69822665;stroke-dasharray:none" /></g><g
   fill="none"
   stroke-linecap="round"
   font-size="29.1042px"
   stroke="#000000"
   font-weight="400"
   stroke-opacity="1"
   stroke-width="12.6581"
   transform="matrix(0.07482046,0,0,0.07447319,25.988451,30.586513)"
   font-family="'MS Shell Dlg 2'"
   font-style="normal"
   stroke-linejoin="bevel"
   id="g170"
   style="fill-rule:evenodd;stroke-width:6.69822665;stroke-dasharray:none;opacity:1"><path
     vector-effect="none"
     fill-rule="evenodd"
     d="M 375.196,46.6835 C 381.186,-29.7583 336.885,-96.0392 272.556,-106.88"
     id="path168"
     style="stroke-width:6.69822665;stroke-dasharray:none" /></g><g
   fill="none"
   stroke-linecap="round"
   font-size="29.1042px"
   stroke="#000000"
   font-weight="400"
   stroke-opacity="1"
   stroke-width="12.6581"
   transform="matrix(0.07482046,0,0,0.07447319,25.988451,30.586513)"
   font-family="'MS Shell Dlg 2'"
   font-style="normal"
   stroke-linejoin="bevel"
   id="g174"
   style="fill-rule:evenodd;stroke-width:6.69822665;stroke-dasharray:none;opacity:1"><path
     vector-effect="none"
     fill-rule="evenodd"
     d="M 272.556,-106.88 C 203.159,-118.576 135.741,-61.8336 121.973,19.8572 108.206,101.548 153.303,177.252 222.7,188.948"
     id="path172"
     style="stroke-width:6.69822665;stroke-dasharray:none" /></g><g
   fill="none"
   stroke-linecap="round"
   font-size="29.1042px"
   stroke="#000000"
   font-weight="400"
   stroke-opacity="1"
   stroke-width="12.6581"
   transform="matrix(0.07482046,0,0,0.07447319,25.988451,30.586513)"
   font-family="'MS Shell Dlg 2'"
   font-style="normal"
   stroke-linejoin="bevel"
   id="g178"
   style="fill-rule:evenodd;stroke-width:6.69822665;stroke-dasharray:none;opacity:1"><path
     vector-effect="none"
     fill-rule="evenodd"
     d="m 222.7,188.948 c 35.605,6 72.534,-6.061 101.611,-33.187 29.076,-27.126 47.57,-66.769 50.885,-109.0775"
     id="path176"
     style="stroke-width:6.69822665;stroke-dasharray:none" /></g><g
   fill="none"
   stroke-linecap="round"
   font-size="29.1042px"
   stroke="#000000"
   font-weight="400"
   stroke-opacity="1"
   stroke-width="12.6581"
   transform="matrix(0.07482046,0,0,0.07335737,37.388426,32.459574)"
   font-family="'MS Shell Dlg 2'"
   font-style="normal"
   stroke-linejoin="bevel"
   id="g182"
   style="fill-rule:evenodd;stroke-width:6.74897689;stroke-dasharray:none;opacity:1"><path
     vector-effect="none"
     fill-rule="evenodd"
     d="M -283.24802,252.84761 -196.305,270.449"
     id="path180"
     style="stroke-width:6.74897689;stroke-dasharray:none"
     sodipodi:nodetypes="cc" /></g><g
   fill="none"
   stroke-linecap="round"
   font-size="29.1042px"
   stroke="#000000"
   font-weight="400"
   stroke-opacity="1"
   stroke-width="12.6581"
   transform="matrix(0.07482046,0,0,0.07335737,37.388426,32.459574)"
   font-family="'MS Shell Dlg 2'"
   font-style="normal"
   stroke-linejoin="bevel"
   id="g186"
   style="fill-rule:evenodd;stroke-width:6.74897689;stroke-dasharray:none;opacity:1"><path
     vector-effect="none"
     fill-rule="evenodd"
     d="M -184.00584,-333.43362 -96.5931,-321.208"
     id="path184"
     style="stroke-width:6.74897689;stroke-dasharray:none"
     sodipodi:nodetypes="cc" /></g><g
   fill="none"
   stroke-linecap="round"
   font-size="29.1042px"
   stroke="#000000"
   font-weight="400"
   stroke-opacity="1"
   stroke-width="12.6581"
   transform="matrix(0.07482046,0,0,0.07447319,25.988451,30.586513)"
   font-family="'MS Shell Dlg 2'"
   font-style="normal"
   stroke-linejoin="bevel"
   id="g190"
   style="fill-rule:evenodd;stroke-width:6.69822665;stroke-dasharray:none;opacity:1"><path
     vector-effect="none"
     fill-rule="evenodd"
     d="M -43.940593,291.54771 126.24,324.807"
     id="path188"
     style="stroke-width:6.69822665;stroke-dasharray:none"
     sodipodi:nodetypes="cc" /></g><g
   fill="none"
   stroke-linecap="round"
   font-size="29.1042px"
   stroke="#000000"
   font-weight="400"
   stroke-opacity="1"
   stroke-width="12.6581"
   transform="matrix(0.03569527,0,0,0.03552939,33.709436,20.006574)"
   font-family="'MS Shell Dlg 2'"
   font-style="normal"
   stroke-linejoin="bevel"
   id="g194"
   style="fill-rule:evenodd;stroke-width:14.04011914;stroke-dasharray:none;opacity:1"><path
     vector-effect="none"
     fill-rule="evenodd"
     d="m -99.40113,-312.69814 356.71387,51.13351"
     id="path192"
     style="stroke-width:14.04011914;stroke-dasharray:none"
     sodipodi:nodetypes="cc" /></g><g
   fill="none"
   stroke-linecap="round"
   font-size="29.1042px"
   stroke="#000000"
   font-weight="400"
   stroke-opacity="1"
   stroke-width="12.6581"
   transform="matrix(0.07482046,0,0,0.07447319,25.988451,30.586513)"
   font-family="'MS Shell Dlg 2'"
   font-style="normal"
   stroke-linejoin="bevel"
   id="g198"
   style="fill-rule:evenodd;stroke-width:6.69822665;stroke-dasharray:none;opacity:1"><path
     vector-effect="none"
     fill-rule="evenodd"
     d="m 126.24,324.807 58.527,9.863"
     id="path196"
     style="stroke-width:6.69822665;stroke-dasharray:none" /></g><g
   fill="none"
   stroke-linecap="round"
   font-size="29.1042px"
   stroke="#000000"
   font-weight="400"
   stroke-opacity="1"
   stroke-width="12.6581"
   transform="matrix(0.07482046,0,0,0.07447319,25.988451,30.586513)"
   font-family="'MS Shell Dlg 2'"
   font-style="normal"
   stroke-linejoin="bevel"
   id="g202"
   style="fill-rule:evenodd;stroke-width:6.69822665;stroke-dasharray:none;opacity:1"><path
     vector-effect="none"
     fill-rule="evenodd"
     d="m 225.952,-266.85 58.526,9.863"
     id="path200"
     style="stroke-width:6.69822665;stroke-dasharray:none" /></g><g
   fill="none"
   stroke-linecap="round"
   font-size="29.1042px"
   stroke="#000000"
   font-weight="400"
   stroke-opacity="1"
   stroke-width="12.6581"
   transform="matrix(0.07482046,0,0,0.07447319,25.988451,30.586513)"
   font-family="'MS Shell Dlg 2'"
   font-style="normal"
   stroke-linejoin="bevel"
   id="g206"
   style="fill-rule:evenodd;stroke-width:2.67929066;stroke-dasharray:none"><path
     vector-effect="none"
     fill-rule="evenodd"
     d="m 205.54,211.408 13.006,2.192"
     id="path204"
     style="stroke-width:2.67929066;stroke-dasharray:none" /></g><g
   fill="none"
   stroke-linecap="round"
   font-size="29.1042px"
   stroke="#000000"
   font-weight="400"
   stroke-opacity="1"
   stroke-width="12.6581"
   transform="matrix(0.07482046,0,0,0.07447319,25.988451,30.586513)"
   font-family="'MS Shell Dlg 2'"
   font-style="normal"
   stroke-linejoin="bevel"
   id="g210"
   style="fill-rule:evenodd;stroke-width:2.67929066;stroke-dasharray:none"><path
     vector-effect="none"
     fill-rule="evenodd"
     d="m 263.705,-133.725 13.006,2.192"
     id="path208"
     style="stroke-width:2.67929066;stroke-dasharray:none" /></g><g
   fill="none"
   stroke-linecap="round"
   font-size="29.1042px"
   stroke="#000000"
   font-weight="400"
   stroke-opacity="1"
   stroke-width="12.6581"
   transform="matrix(0.07482046,0,0,0.07447319,25.988451,30.586513)"
   font-family="'MS Shell Dlg 2'"
   font-style="normal"
   stroke-linejoin="bevel"
   id="g214"
   style="fill-rule:evenodd;stroke-width:6.69822665;stroke-dasharray:none;opacity:1"><path
     vector-effect="none"
     fill-rule="evenodd"
     d="m 349.185,42.2998 c 5.53,-70.5772 -31.914,-133.3854 -89.769,-150.5778"
     id="path212"
     style="stroke-width:6.69822665;stroke-dasharray:none" /></g><g
   fill="none"
   stroke-linecap="round"
   font-size="29.1042px"
   stroke="#000000"
   font-weight="400"
   stroke-opacity="1"
   stroke-width="12.6581"
   transform="matrix(0.07482046,0,0,0.07447319,25.988451,30.586513)"
   font-family="'MS Shell Dlg 2'"
   font-style="normal"
   stroke-linejoin="bevel"
   id="g218"
   style="fill-rule:evenodd;stroke-width:6.69822665;stroke-dasharray:none;opacity:1"><path
     vector-effect="none"
     fill-rule="evenodd"
     d="M 209.828,185.962 C 280.312,189.14 342.72,124.805 349.185,42.2998"
     id="path216"
     style="stroke-width:6.69822665;stroke-dasharray:none" /></g><g
   fill="none"
   stroke-linecap="round"
   font-size="29.1042px"
   stroke="#000000"
   font-weight="400"
   stroke-opacity="1"
   stroke-width="12.6581"
   transform="matrix(0.07482046,0,0,0.07447319,25.988451,30.586513)"
   font-family="'MS Shell Dlg 2'"
   font-style="normal"
   stroke-linejoin="bevel"
   id="g19736"
   style="fill-rule:evenodd;stroke-width:2.67929066;stroke-dasharray:none;opacity:0.3" /><g
   fill="none"
   stroke-linecap="round"
   font-size="29.1042px"
   stroke="#000000"
   font-weight="400"
   stroke-opacity="1"
   stroke-width="12.6581"
   transform="matrix(0.07482046,0,0,0.07447319,25.988451,30.586513)"
   font-family="'MS Shell Dlg 2'"
   font-style="normal"
   stroke-linejoin="bevel"
   id="g19740"
   style="fill-rule:evenodd;stroke-width:1.33964533;stroke-dasharray:none;opacity:0.3" /><g
   fill="none"
   stroke-linecap="round"
   font-size="29.1042px"
   stroke="#000000"
   font-weight="400"
   stroke-opacity="1"
   stroke-width="12.6581"
   transform="matrix(0.07482046,0,0,0.07447319,25.988451,30.586513)"
   font-family="'MS Shell Dlg 2'"
   font-style="normal"
   stroke-linejoin="bevel"
   id="g21934"
   style="fill-rule:evenodd;stroke-width:6.69822665;stroke-dasharray:none;opacity:1"><path
     vector-effect="none"
     fill-rule="evenodd"
     d="M 202.81485,-269.49965 C 57.121102,-296.04227 -76.2919,-181.578 -103.826,-18.1967 -131.361,145.185 -42.590798,299.45017 107.34985,320.76419"
     id="path21932"
     style="stroke-width:6.69822665;stroke-dasharray:none"
     sodipodi:nodetypes="ccc" /></g><g
   fill="none"
   stroke-linecap="round"
   font-size="29.1042px"
   stroke="#000000"
   font-weight="400"
   stroke-opacity="1"
   stroke-width="12.6581"
   transform="matrix(0.07482046,0,0,0.07335737,37.388426,32.459574)"
   font-family="'MS Shell Dlg 2'"
   font-style="normal"
   stroke-linejoin="bevel"
   id="g22149"
   style="fill-rule:evenodd;stroke-width:1.34979538;stroke-dasharray:none;opacity:0.3"><path
     vector-effect="none"
     fill-rule="evenodd"
     d="m -484.70202,-83.638951 c -27.534,162.562742 63.41812,308.526811 201.454,336.486561"
     id="path22147"
     style="stroke-width:1.3498;stroke-dasharray:none"
     sodipodi:nodetypes="cc" /></g><g
   fill="none"
   stroke-linecap="round"
   font-size="29.1042px"
   stroke="#000000"
   font-weight="400"
   stroke-opacity="1"
   stroke-width="12.6581"
   transform="matrix(0.07482046,0,0,0.07335737,37.388426,32.459574)"
   font-family="'MS Shell Dlg 2'"
   font-style="normal"
   stroke-linejoin="bevel"
   id="g22153"
   style="fill-rule:evenodd;stroke-width:1.34979538;stroke-dasharray:none;opacity:0.3" /><g
   fill="none"
   stroke-linecap="round"
   font-size="29.1042px"
   stroke="#000000"
   font-weight="400"
   stroke-opacity="1"
   stroke-width="12.6581"
   transform="matrix(0.03569527,0,0,0.03552939,33.709436,20.006574)"
   font-family="'MS Shell Dlg 2'"
   font-style="normal"
   stroke-linejoin="bevel"
   id="g22157"
   style="fill-rule:evenodd;stroke-width:2.80802383;stroke-dasharray:none;opacity:0.3" /><g
   fill="none"
   stroke-linecap="round"
   font-size="29.1042px"
   stroke="#000000"
   font-weight="400"
   stroke-opacity="1"
   stroke-width="12.6581"
   transform="matrix(0.07482046,0,0,0.07447319,25.988451,30.586513)"
   font-family="'MS Shell Dlg 2'"
   font-style="normal"
   stroke-linejoin="bevel"
   id="g22161"
   style="fill-rule:evenodd;stroke-width:1.33964533;stroke-dasharray:none;opacity:0.3" /><g
   fill="none"
   stroke-linecap="round"
   font-size="29.1042px"
   stroke="#000000"
   font-weight="400"
   stroke-opacity="1"
   stroke-width="12.6581"
   transform="matrix(0.07482046,0,0,0.07447319,25.988451,30.586513)"
   font-family="'MS Shell Dlg 2'"
   font-style="normal"
   stroke-linejoin="bevel"
   id="g22165"
   style="fill-rule:evenodd;stroke-width:1.33964533;stroke-dasharray:none;opacity:0.3" /><g
   fill="none"
   stroke-linecap="round"
   font-size="29.1042px"
   stroke="#000000"
   font-weight="400"
   stroke-opacity="1"
   stroke-width="12.6581"
   transform="matrix(0.07482046,0,0,0.07447319,25.988451,30.586513)"
   font-family="'MS Shell Dlg 2'"
   font-style="normal"
   stroke-linejoin="bevel"
   id="g22173"
   style="fill-rule:evenodd;stroke-width:1.33964533;stroke-dasharray:none;opacity:0.3" /><g
   fill="none"
   stroke-linecap="round"
   font-size="29.1042px"
   stroke="#000000"
   font-weight="400"
   stroke-opacity="1"
   stroke-width="12.6581"
   transform="matrix(0.07482046,0,0,0.07447319,25.988451,30.586513)"
   font-family="'MS Shell Dlg 2'"
   font-style="normal"
   stroke-linejoin="bevel"
   id="g22177"
   style="fill-rule:evenodd;stroke-width:1.33964533;stroke-dasharray:none;opacity:0.3" /><g
   fill="none"
   stroke-linecap="round"
   font-size="29.1042px"
   stroke="#000000"
   font-weight="400"
   stroke-opacity="1"
   stroke-width="12.6581"
   transform="matrix(0.07482046,0,0,0.07447319,25.988451,30.586513)"
   font-family="'MS Shell Dlg 2'"
   font-style="normal"
   stroke-linejoin="bevel"
   id="g22181"
   style="fill-rule:evenodd;stroke-width:1.33964533;stroke-dasharray:none;opacity:0.3" /></svg>
