<?xml version="1.0" encoding="UTF-8" standalone="no"?>
<svg
   viewBox="0 0 64 63.999997"
   height="64"
   width="64"
   xml:space="preserve"
   id="svg4485"
   version="1.1"
   sodipodi:docname="BearGExxC.svg"
   inkscape:version="1.2.2 (732a01da63, 2022-12-09)"
   xmlns:inkscape="http://www.inkscape.org/namespaces/inkscape"
   xmlns:sodipodi="http://sodipodi.sourceforge.net/DTD/sodipodi-0.dtd"
   xmlns:xlink="http://www.w3.org/1999/xlink"
   xmlns="http://www.w3.org/2000/svg"
   xmlns:svg="http://www.w3.org/2000/svg"
   xmlns:rdf="http://www.w3.org/1999/02/22-rdf-syntax-ns#"
   xmlns:cc="http://creativecommons.org/ns#"
   xmlns:dc="http://purl.org/dc/elements/1.1/">
    <sodipodi:namedview
   pagecolor="#ffffff"
   bordercolor="#666666"
   borderopacity="1"
   objecttolerance="10"
   gridtolerance="10"
   guidetolerance="10"
   inkscape:pageopacity="0"
   inkscape:pageshadow="2"
   inkscape:window-width="1839"
   inkscape:window-height="1057"
   id="namedview449"
   showgrid="false"
   inkscape:zoom="8"
   inkscape:cx="5.75"
   inkscape:cy="23.5"
   inkscape:window-x="73"
   inkscape:window-y="-8"
   inkscape:window-maximized="1"
   inkscape:current-layer="svg4485"
   inkscape:showpageshadow="2"
   inkscape:pagecheckerboard="0"
   inkscape:deskcolor="#d1d1d1" />
    <metadata
   id="metadata4491">
        <rdf:RDF>
            <cc:Work
   rdf:about="">
                <dc:format>image/svg+xml</dc:format>
                <dc:type
   rdf:resource="http://purl.org/dc/dcmitype/StillImage" />
                
            </cc:Work>
        </rdf:RDF>
    </metadata>
    <defs
   id="defs4489">
        <linearGradient
   gradientUnits="userSpaceOnUse"
   y2="60.289665"
   x2="3.7103343"
   y1="40.950954"
   x1="46.32296"
   id="linearGradient7549"
   xlink:href="#linearGradient7547" />
        <linearGradient
   id="linearGradient7547">
            <stop
   id="stop7543"
   offset="0"
   style="stop-color:#37c837;stop-opacity:1;" />
            <stop
   id="stop7545"
   offset="1"
   style="stop-color:#37c837;stop-opacity:0;" />
        </linearGradient>
        <linearGradient
   gradientUnits="userSpaceOnUse"
   y2="43.874249"
   x2="-5.5092831"
   y1="15.765656"
   x1="56.891792"
   id="linearGradient7533"
   xlink:href="#linearGradient7547" />
        <linearGradient
   gradientUnits="userSpaceOnUse"
   y2="32.63081"
   x2="-2.9232936"
   y1="6.3211684"
   x1="39.5769"
   id="linearGradient7541"
   xlink:href="#linearGradient7547" />
    <inkscape:path-effect
   effect="fill_between_many"
   method="originald"
   linkedpaths="#g418,0,1|#g434,0,1|#g438,0,1|#g414,0,1|#g442,0,1|#g446,0,1"
   id="path-effect29386" /><inkscape:path-effect
   effect="fill_between_many"
   method="originald"
   linkedpaths="#g94,0,1|#g422,0,1|#g442,0,1|#g446,0,1"
   id="path-effect29390" /><inkscape:path-effect
   effect="fill_between_many"
   method="originald"
   linkedpaths="#path29392,0,1|"
   id="path-effect29394" /><inkscape:path-effect
   effect="fill_between_many"
   method="originald"
   linkedpaths="#path36340,0,1"
   id="path-effect36343" /></defs>
    
    
    
    
    
    
    
    
    
    
    
<path
   inkscape:original-d="M 0,0"
   inkscape:path-effect="#path-effect29394"
   d="M 0,0 Z"
   id="path29396"
   class="UnoptimicedTransforms" /><path
   inkscape:original-d="M 0,0"
   inkscape:path-effect="#path-effect29390"
   d="M 0,0"
   id="path29392"
   class="UnoptimicedTransforms" /><path
   inkscape:original-d="M 0,0"
   inkscape:path-effect="#path-effect29386"
   d="M 0,0"
   id="path29388"
   class="UnoptimicedTransforms" /><path
   inkscape:original-d="M 0,0"
   inkscape:path-effect="#path-effect36343"
   d="M 0,0"
   id="path36345"
   class="UnoptimicedTransforms" /><g
   transform="matrix(0.00882882,0,0,0.00880825,32.392228,30.326036)"
   font-size="29.1042px"
   fill="none"
   stroke-opacity="1"
   font-family="'MS Shell Dlg 2'"
   stroke-linecap="round"
   stroke-width="25.0905"
   font-style="normal"
   stroke="#000000"
   stroke-linejoin="bevel"
   font-weight="400"
   id="g2758"
   style="fill-rule:evenodd;stroke-width:56.6988;stroke-dasharray:none;opacity:0.3" /><g
   transform="matrix(0.00882882,0,0,0.00880825,32.392228,30.326036)"
   font-size="29.1042px"
   fill="none"
   stroke-opacity="1"
   font-family="'MS Shell Dlg 2'"
   stroke-linecap="round"
   stroke-width="25.0905"
   font-style="normal"
   stroke="#000000"
   stroke-linejoin="bevel"
   font-weight="400"
   id="g2762"
   style="fill-rule:evenodd;stroke-width:56.6988;stroke-dasharray:none;opacity:0.3" /><g
   transform="matrix(0.00882882,0,0,0.00880825,32.392228,30.326036)"
   font-size="29.1042px"
   fill="none"
   stroke-opacity="1"
   font-family="'MS Shell Dlg 2'"
   stroke-linecap="round"
   stroke-width="25.0905"
   font-style="normal"
   stroke="#000000"
   stroke-linejoin="bevel"
   font-weight="400"
   id="g2770"
   style="fill-rule:evenodd;stroke-width:56.6988;stroke-dasharray:none;opacity:0.3" /><g
   transform="matrix(0.00882882,0,0,0.00880825,32.392228,30.326036)"
   font-size="29.1042px"
   fill="none"
   stroke-opacity="1"
   font-family="'MS Shell Dlg 2'"
   stroke-linecap="round"
   stroke-width="25.0905"
   font-style="normal"
   stroke="#000000"
   stroke-linejoin="bevel"
   font-weight="400"
   id="g2782"
   style="fill-rule:evenodd;stroke-width:56.6988;stroke-dasharray:none;opacity:0.36051502" /><g
   transform="matrix(0.00882882,0,0,0.00880825,32.392228,30.326036)"
   font-size="29.1042px"
   fill="none"
   stroke-opacity="1"
   font-family="'MS Shell Dlg 2'"
   stroke-linecap="round"
   stroke-width="25.0905"
   font-style="normal"
   stroke="#000000"
   stroke-linejoin="bevel"
   font-weight="400"
   id="g2786"
   style="fill-rule:evenodd;stroke-width:56.6988;stroke-dasharray:none;opacity:0.36051502" /><g
   transform="matrix(0.00882882,0,0,0.00880825,32.392228,30.326036)"
   font-size="29.1042px"
   fill="none"
   stroke-opacity="1"
   font-family="'MS Shell Dlg 2'"
   stroke-linecap="round"
   stroke-width="25.0905"
   font-style="normal"
   stroke="#000000"
   stroke-linejoin="bevel"
   font-weight="400"
   id="g2790"
   style="fill-rule:evenodd;stroke-width:56.6988;stroke-dasharray:none;opacity:0.50643777" /><g
   transform="matrix(0.00882882,0,0,0.00880825,32.392228,30.326036)"
   font-size="29.1042px"
   fill="none"
   stroke-opacity="1"
   font-family="'MS Shell Dlg 2'"
   stroke-linecap="round"
   stroke-width="25.0905"
   font-style="normal"
   stroke="#000000"
   stroke-linejoin="bevel"
   font-weight="400"
   id="g2802"
   style="fill-rule:evenodd;stroke-width:56.6988;stroke-dasharray:none" /><g
   transform="matrix(0.00882882,0,0,0.00880825,32.392228,30.326036)"
   font-size="29.1042px"
   fill="none"
   stroke-opacity="1"
   font-family="'MS Shell Dlg 2'"
   stroke-linecap="round"
   stroke-width="25.0905"
   font-style="normal"
   stroke="#000000"
   stroke-linejoin="bevel"
   font-weight="400"
   id="g2806"
   style="fill-rule:evenodd;stroke-width:56.6988;stroke-dasharray:none" /><g
   transform="matrix(0.00882882,0,0,0.00880825,32.392228,30.326036)"
   font-size="29.1042px"
   fill="none"
   stroke-opacity="1"
   font-family="'MS Shell Dlg 2'"
   stroke-linecap="round"
   stroke-width="25.0905"
   font-style="normal"
   stroke="#000000"
   stroke-linejoin="bevel"
   font-weight="400"
   id="g2810"
   style="fill-rule:evenodd;stroke-width:56.6988;stroke-dasharray:none;opacity:0.36051502" /><g
   transform="matrix(0.00882882,0,0,0.00880825,32.392228,30.326036)"
   font-size="29.1042px"
   fill="none"
   stroke-opacity="1"
   font-family="'MS Shell Dlg 2'"
   stroke-linecap="round"
   stroke-width="25.0905"
   font-style="normal"
   stroke="#000000"
   stroke-linejoin="bevel"
   font-weight="400"
   id="g2814"
   style="fill-rule:evenodd;stroke-width:56.6988;stroke-dasharray:none;opacity:0.36051502" /><g
   transform="matrix(0.00882882,0,0,0.00880825,32.392228,30.326036)"
   font-size="29.1042px"
   fill="none"
   stroke-opacity="1"
   font-family="'MS Shell Dlg 2'"
   stroke-linecap="round"
   stroke-width="25.0905"
   font-style="normal"
   stroke="#000000"
   stroke-linejoin="bevel"
   font-weight="400"
   id="g2818"
   style="fill-rule:evenodd;stroke-width:56.6988;stroke-dasharray:none" /><g
   transform="matrix(0.00882882,0,0,0.00880825,32.392228,30.326036)"
   font-size="29.1042px"
   fill="none"
   stroke-opacity="1"
   font-family="'MS Shell Dlg 2'"
   stroke-linecap="round"
   stroke-width="25.0905"
   font-style="normal"
   stroke="#000000"
   stroke-linejoin="bevel"
   font-weight="400"
   id="g2826"
   style="fill-rule:evenodd;stroke-width:56.6988;stroke-dasharray:none" /><g
   transform="matrix(0.00882882,0,0,0.00880825,32.392228,30.326036)"
   font-size="29.1042px"
   fill="none"
   stroke-opacity="1"
   font-family="'MS Shell Dlg 2'"
   stroke-linecap="round"
   stroke-width="25.0905"
   font-style="normal"
   stroke="#000000"
   stroke-linejoin="bevel"
   font-weight="400"
   id="g2834"
   style="fill-rule:evenodd;stroke-width:56.6988;stroke-dasharray:none;opacity:0.60515021" /><g
   transform="matrix(0.00882882,0,0,0.00880825,32.392228,30.326036)"
   font-size="29.1042px"
   fill="none"
   stroke-opacity="1"
   font-family="'MS Shell Dlg 2'"
   stroke-linecap="round"
   stroke-width="25.0905"
   font-style="normal"
   stroke="#000000"
   stroke-linejoin="bevel"
   font-weight="400"
   id="g8203"
   style="fill-rule:evenodd;stroke-width:56.6988;stroke-dasharray:none;opacity:0.3" /><g
   transform="matrix(0.00882882,0,0,0.00880825,32.392228,30.326036)"
   font-size="29.1042px"
   fill="none"
   stroke-opacity="1"
   font-family="'MS Shell Dlg 2'"
   stroke-linecap="round"
   stroke-width="25.0905"
   font-style="normal"
   stroke="#000000"
   stroke-linejoin="bevel"
   font-weight="400"
   id="g8207"
   style="fill-rule:evenodd;stroke-width:56.6988;stroke-dasharray:none;opacity:0.3" /><g
   transform="matrix(0.00882882,0,0,0.00880825,32.392228,30.326036)"
   font-size="29.1042px"
   fill="none"
   stroke-opacity="1"
   font-family="'MS Shell Dlg 2'"
   stroke-linecap="round"
   stroke-width="25.0905"
   font-style="normal"
   stroke="#000000"
   stroke-linejoin="bevel"
   font-weight="400"
   id="g9361"
   style="fill-rule:evenodd;stroke-width:56.6988;stroke-dasharray:none;opacity:0.884" /><g
   transform="matrix(0.00882882,0,0,0.00880825,32.392228,30.326036)"
   font-size="29.1042px"
   fill="none"
   stroke-opacity="1"
   font-family="'MS Shell Dlg 2'"
   stroke-linecap="round"
   stroke-width="25.0905"
   font-style="normal"
   stroke="#000000"
   stroke-linejoin="bevel"
   font-weight="400"
   id="g9374"
   style="fill-rule:evenodd;stroke-width:56.6988;stroke-dasharray:none;opacity:0.3" /><g
   transform="matrix(0.00882882,0,0,0.00880825,32.392228,30.326036)"
   font-size="29.1042px"
   fill="none"
   stroke-opacity="1"
   font-family="'MS Shell Dlg 2'"
   stroke-linecap="round"
   stroke-width="25.0905"
   font-style="normal"
   stroke="#000000"
   stroke-linejoin="bevel"
   font-weight="400"
   id="g9378"
   style="fill-rule:evenodd;stroke-width:56.6988;stroke-dasharray:none;opacity:0.3" /><g
   transform="matrix(0.00882882,0,0,0.00880825,32.392228,30.326036)"
   font-size="29.1042px"
   fill="none"
   stroke-opacity="1"
   font-family="'MS Shell Dlg 2'"
   stroke-linecap="round"
   stroke-width="25.0905"
   font-style="normal"
   stroke="#000000"
   stroke-linejoin="bevel"
   font-weight="400"
   id="g9382"
   style="fill-rule:evenodd;stroke-width:56.6988;stroke-dasharray:none;opacity:0.3" /><g
   transform="matrix(0.00882882,0,0,0.00880825,32.392228,30.326036)"
   font-size="29.1042px"
   fill="none"
   stroke-opacity="1"
   font-family="'MS Shell Dlg 2'"
   stroke-linecap="round"
   stroke-width="25.0905"
   font-style="normal"
   stroke="#000000"
   stroke-linejoin="bevel"
   font-weight="400"
   id="g9386"
   style="fill-rule:evenodd;stroke-width:56.6988;stroke-dasharray:none;opacity:0.3" /><g
   id="g11852"
   transform="matrix(1.0114372,0,0,1.033481,-0.71535382,0.1638738)"
   style="stroke-width:0.978091"><g
     transform="matrix(0.00882882,0,0,0.00880825,32.392228,30.326036)"
     font-size="29.1042px"
     fill="none"
     stroke-opacity="1"
     font-family="'MS Shell Dlg 2'"
     stroke-linecap="round"
     stroke-width="25.0905"
     font-style="normal"
     stroke="#000000"
     stroke-linejoin="bevel"
     font-weight="400"
     id="g11798"
     style="opacity:1;fill-rule:evenodd;stroke-width:55.4565;stroke-dasharray:none"><path
       id="path11796"
       style="display:inline;fill:#cc8d00;fill-opacity:1;stroke-width:11.0913;stroke-dasharray:none"
       d="m 1695.93,-1833.72 c 241.5,224.14 436.31,493.82 573.23,793.51 50.98,111.596 76.81,226.49 76.86,341.869 0.01,87.443 -16.86,175.081 -51.51,262.786 -23.45,59.317 -55.1,118.608 -95.11,177.138 -39.99,58.522 -88.34,116.283 -144.76,172.3035 -96.48,95.91003 -216.75,186.6455 -356.72,267.8755 -139.92,81.279 -299.56,153.052 -473.19,212.335 -138.9,47.457 -286.822,86.946 -440.433,117.514 -153.608,30.583 -312.901,52.246 -474.461,64.479 -161.558,12.249 -325.3819,15.069 -487.983,8.396 -162.599,-6.658 -323.975,-22.809 -480.567,-48.074 -233.947,-37.683 -457.356,-95.831 -659.246,-171.343 -201.96,-75.42 -382.4,-168.203 -532.21,-272.6858 -120.08,-83.65153 -220.5,-174.6931 -298.54,-269.0452 -59.61,-72.01 -106.23,-145.86 -139.89,-219.934 -22.71,-49.97 -39.55,-100.046 -50.75,-150.044 -11.17,-49.994 -16.75,-99.946 -16.76,-149.855 -0.04,-115.38 25.7,-230.294 76.59,-341.925 136.68,-299.81 331.28,-569.63 572.61,-793.97 l 119.6,-99.13 c -776.18,364.08 -1098.93,958.831 -820.11,1511.247 278.83,552.416 1105.38,955.81 2100.262,1025.017 C 687.721,673.952 1658.79,395.607 2160.3,-102.525 2774.35,-712.433 2526.95,-1487.73 1576.25,-1932.76 Z"
       sodipodi:nodetypes="cccccccccccccccccccccccccc" /></g><g
     transform="matrix(0.00882882,0,0,0.00880825,32.392228,30.326036)"
     font-size="29.1042px"
     fill="none"
     stroke-opacity="1"
     font-family="'MS Shell Dlg 2'"
     stroke-linecap="round"
     stroke-width="25.0905"
     font-style="normal"
     stroke="#000000"
     stroke-linejoin="bevel"
     font-weight="400"
     id="g11813"
     style="display:inline;opacity:1;fill-rule:evenodd;stroke-width:55.4565;stroke-dasharray:none;fill:#91786e;fill-opacity:1"><path
       id="path11811"
       style="display:inline;fill:#91786e;fill-opacity:1;stroke-width:11.0913;stroke-dasharray:none"
       d="m -2279.52,-1038.42 c -50.89,111.631 -76.63,226.545 -76.59,341.925 0.01,49.909 5.59,99.861 16.76,149.855 11.2,49.998 28.04,100.074 50.75,150.044 33.66,74.074 80.28,147.924 139.89,219.934 78.04,94.3521 178.46,185.39367 298.54,269.0452 149.81,104.4828 330.25,197.2658 532.21,272.6858 201.89,75.512 425.299,133.66 659.246,171.343 156.592,25.265 317.968,41.416 480.567,48.074 162.6011,6.673 326.425,3.853 487.983,-8.396 161.56,-12.233 320.853,-33.896 474.461,-64.479 153.611,-30.568 301.533,-70.057 440.433,-117.514 173.63,-59.283 333.27,-131.056 473.19,-212.335 139.97,-81.23 260.24,-171.96547 356.72,-267.8755 56.42,-56.0205 104.77,-113.7815 144.76,-172.3035 40.01,-58.53 71.66,-117.821 95.11,-177.138 34.65,-87.705 51.52,-175.343 51.51,-262.786 -0.05,-115.379 -25.88,-230.273 -76.86,-341.869 -136.92,-299.69 -331.73,-569.37 -573.23,-793.51 -364.52,-338.33 -1008.397,-544.11 -1701.634,-543.84 -693.237,0.27 -1336.956,206.56 -1701.206,545.17 -241.33,224.34 -435.93,494.16 -572.61,793.97 z"
       sodipodi:nodetypes="cccccccccccccccccccscc" /></g><g
     transform="matrix(0.00882882,0,0,0.00880825,32.392228,30.326036)"
     font-size="29.1042px"
     fill="none"
     stroke-opacity="1"
     font-family="'MS Shell Dlg 2'"
     stroke-linecap="round"
     stroke-width="25.0905"
     font-style="normal"
     stroke="#000000"
     stroke-linejoin="bevel"
     font-weight="400"
     id="g11818"
     style="opacity:1;fill:#735f59;fill-opacity:1;fill-rule:evenodd;stroke-width:11.0913;stroke-dasharray:none"><path
       id="path11816"
       style="fill:#735f59;fill-opacity:1;stroke-width:11.0913;stroke-dasharray:none"
       d="m 1494.75,-1230.3 c -0.19,-475.45 -671.914,-860.62 -1500.34138,-860.3 -828.42662,0.33 -1499.84862,386.03 -1499.65862,861.48 0.15,389.533 456.02,730.351 1111.59,831.043 655.566,100.692 1347.457,-63.834 1687.09,-401.176 131.94,-131.047 201.38,-279.727 201.32,-431.047 z"
       sodipodi:nodetypes="cccscc" /></g><path
     id="path10935"
     style="font-style:normal;font-weight:400;font-size:29.1042px;font-family:'MS Shell Dlg 2';display:inline;opacity:1;fill:#ffaf00;fill-opacity:1;fill-rule:evenodd;stroke:#000000;stroke-width:0.0978091;stroke-linecap:round;stroke-linejoin:bevel;stroke-dasharray:none;stroke-opacity:1"
     d="M 32.340304,5.4074967 C 15.274205,5.414191 1.4425346,13.341264 1.4464193,23.113136 c 0.00309,8.005884 9.3943947,15.010562 22.8994427,17.080078 13.50504,2.06941 27.758384,-1.31198 34.755047,-8.245236 L 51.465128,29.42297 C 47.037386,33.810641 38.463993,36.262374 29.680385,35.652772 20.896751,35.04318 13.59929,31.489985 11.13755,26.624166 8.6758986,21.758348 11.5254,16.519633 18.371358,13.317658 c 3.313553,-2.461236 8.46519,-3.9316253 13.97051,-3.9337649 5.533272,-0.00215 10.646326,1.4316349 13.966788,3.9179099 8.393559,3.919935 10.577809,10.748945 5.156472,16.121167 l 7.635781,2.525004 c 2.717953,-2.693351 4.14845,-5.749003 4.14725,-8.859036 C 63.244275,13.317129 49.406424,5.4008906 32.340304,5.4074967 Z"
     sodipodi:nodetypes="ccccccccsccccc" /><g
     transform="matrix(0.00882882,0,0,0.00880825,32.392228,30.326036)"
     font-size="29.1042px"
     fill="none"
     stroke-opacity="1"
     font-family="'MS Shell Dlg 2'"
     stroke-linecap="round"
     stroke-width="25.0905"
     font-style="normal"
     stroke="#000000"
     stroke-linejoin="bevel"
     font-weight="400"
     id="g9369"
     style="display:inline;opacity:1;fill-rule:evenodd;stroke-width:11.0913;stroke-dasharray:none"><path
       id="path9367"
       style="fill:#ffaf00;fill-opacity:1;stroke-width:11.0913;stroke-dasharray:none"
       d="M 3495.55,816.186 C 3495.69,1169.27 3333.67,1516.18 3025.81,1821.95 2233.33,2609.08 618.922,2992.98 -910.733,2758.03 -2440.39,2523.08 -3504.09,1727.84 -3504.45,818.933 l -0.64,-1637.813 c 0.35,908.9074 1064.06,1704.148 2593.715,1939.1 1529.654,234.94 3144.065,-148.949 3936.545,-936.081 307.85,-305.776 469.88,-652.684 469.74,-1005.766 z"
       sodipodi:nodetypes="ccscccccc" /><path
       id="path9365"
       style="stroke-width:11.0913;stroke-dasharray:none"
       d="m 3494.91,-821.627 0.64,1637.813 C 3495.69,1169.27 3333.67,1516.18 3025.81,1821.95 2233.33,2609.08 618.922,2992.98 -910.733,2758.03 -2440.39,2523.08 -3504.09,1727.84 -3504.45,818.933 l -0.64,-1637.813"
       sodipodi:nodetypes="cccscc" /></g><g
     transform="matrix(0.00882882,0,0,0.00880825,32.392228,30.326036)"
     font-size="29.1042px"
     fill="none"
     stroke-opacity="1"
     font-family="'MS Shell Dlg 2'"
     stroke-linecap="round"
     stroke-width="25.0905"
     font-style="normal"
     stroke="#000000"
     stroke-linejoin="bevel"
     font-weight="400"
     id="g2766"
     style="opacity:1;fill-rule:evenodd;stroke-width:55.4565;stroke-dasharray:none"><path
       id="path2764"
       style="stroke-width:55.4565;stroke-dasharray:none"
       d="m 1494.75,-1230.3 c -0.19,-475.45 -671.914,-860.62 -1500.34138,-860.3 -828.42662,0.33 -1499.84862,386.03 -1499.65862,861.48 0.15,389.533 456.02,730.351 1111.59,831.043 655.566,100.692 1347.457,-63.834 1687.09,-401.176 131.94,-131.047 201.38,-279.727 201.32,-431.047 z"
       sodipodi:nodetypes="cccscc" /></g><g
     transform="matrix(0.00882882,0,0,0.00880825,32.392228,30.326036)"
     font-size="29.1042px"
     fill="none"
     stroke-opacity="1"
     font-family="'MS Shell Dlg 2'"
     stroke-linecap="round"
     stroke-width="25.0905"
     font-style="normal"
     stroke="#000000"
     stroke-linejoin="bevel"
     font-weight="400"
     id="g2774"
     style="opacity:1;fill-rule:evenodd;stroke-width:55.4565;stroke-dasharray:none"><path
       fill-rule="evenodd"
       vector-effect="none"
       d="m 1695.93,-1833.72 c -364.52,-338.33 -1008.397,-544.11 -1701.634,-543.84 -693.237,0.27 -1336.956,206.56 -1701.206,545.17"
       id="path2772"
       style="stroke-width:55.4565;stroke-dasharray:none" /><path
       id="path9448"
       style="fill:none;stroke-width:55.4565;stroke-dasharray:none"
       d="m -1700.3532,-1838.4433 c -2.1956,2.013 -4.3812,4.0308 -6.5568,6.0533" /><path
       id="path9454"
       style="fill:none;stroke-width:55.4565;stroke-dasharray:none"
       d="M 1664.5308,-1861.9374 C 1295.1702,-2183.4566 668.04413,-2377.8224 -5.704,-2377.56 c -689.09566,0.2684 -1329.2648,204.1034 -1694.6492,539.1167"
       sodipodi:nodetypes="csc" /><path
       id="path9452"
       style="fill:none;stroke-width:55.4565;stroke-dasharray:none"
       d="m 1695.93,-1833.72 c -10.2473,-9.5111 -20.7155,-18.9174 -31.3992,-28.2174" /></g><g
     transform="matrix(0.00882882,0,0,0.00880825,32.392228,30.326036)"
     font-size="29.1042px"
     fill="none"
     stroke-opacity="1"
     font-family="'MS Shell Dlg 2'"
     stroke-linecap="round"
     stroke-width="25.0905"
     font-style="normal"
     stroke="#000000"
     stroke-linejoin="bevel"
     font-weight="400"
     id="g2778"
     style="opacity:1;fill-rule:evenodd;stroke-width:55.4565;stroke-dasharray:none"><path
       id="path2776"
       style="stroke-width:55.4565;stroke-dasharray:none"
       d="m -1706.91,-1832.39 c -379.1,352.41 -398.19,794.6 -49.96,1157.162 348.22,362.561 1009.787,589.2883 1731.2317,593.3189 C 695.806,-77.8785 1365.29,-297.169 1726.33,-655.768 c 368.5,-366.022 356.82,-818.562 -30.4,-1177.952"
       sodipodi:nodetypes="ccscc" /></g><g
     transform="matrix(0.00882882,0,0,0.00880825,32.392228,30.326036)"
     font-size="29.1042px"
     fill="none"
     stroke-opacity="1"
     font-family="'MS Shell Dlg 2'"
     stroke-linecap="round"
     stroke-width="25.0905"
     font-style="normal"
     stroke="#000000"
     stroke-linejoin="bevel"
     font-weight="400"
     id="g2794"
     style="opacity:1;fill-rule:evenodd;stroke-width:55.4565;stroke-dasharray:none"><path
       fill-rule="evenodd"
       vector-effect="none"
       d="M 3494.91,-821.627 C 3494.47,-1931.02 1927.12,-2829.75 -5.88115,-2829 -1938.88,-2828.24 -3505.53,-1928.28 -3505.09,-818.88"
       id="path2792"
       style="stroke-width:55.4565;stroke-dasharray:none" /></g><g
     transform="matrix(0.00882882,0,0,0.00880825,32.392228,30.326036)"
     font-size="29.1042px"
     fill="none"
     stroke-opacity="1"
     font-family="'MS Shell Dlg 2'"
     stroke-linecap="round"
     stroke-width="25.0905"
     font-style="normal"
     stroke="#000000"
     stroke-linejoin="bevel"
     font-weight="400"
     id="g2798"
     style="opacity:1;fill-rule:evenodd;stroke-width:55.4565;stroke-dasharray:none"><path
       id="path2796"
       style="stroke-width:55.4565;stroke-dasharray:none"
       d="m -3505.09,-818.88 c 0.35,908.9074 1064.06,1704.148 2593.715,1939.1 1529.654,234.94 3144.065,-148.949 3936.545,-936.081 307.85,-305.776 469.88,-652.684 469.74,-1005.766"
       sodipodi:nodetypes="cccc" /></g><g
     transform="matrix(0.00882882,0,0,0.00880825,32.392228,30.326036)"
     font-size="29.1042px"
     fill="none"
     stroke-opacity="1"
     font-family="'MS Shell Dlg 2'"
     stroke-linecap="round"
     stroke-width="25.0905"
     font-style="normal"
     stroke="#000000"
     stroke-linejoin="bevel"
     font-weight="400"
     id="g2822"
     style="opacity:1;fill-rule:evenodd;stroke-width:55.4565;stroke-dasharray:none"><path
       id="path2820"
       style="stroke-width:55.4565;stroke-dasharray:none"
       d="m -1706.91,-1832.39 c -241.33,224.34 -435.93,494.16 -572.61,793.97 -50.89,111.631 -76.63,226.545 -76.59,341.925 0.01,49.909 5.59,99.861 16.76,149.855 11.2,49.998 28.04,100.074 50.75,150.044 33.66,74.074 80.28,147.924 139.89,219.934 78.04,94.3521 178.46,185.39367 298.54,269.0452 149.81,104.4828 330.25,197.2658 532.21,272.6858 201.89,75.512 425.299,133.66 659.246,171.343 156.592,25.265 317.968,41.416 480.567,48.074 162.6011,6.673 326.425,3.853 487.983,-8.396 161.56,-12.233 320.853,-33.896 474.461,-64.479 153.611,-30.568 301.533,-70.057 440.433,-117.514 173.63,-59.283 333.27,-131.056 473.19,-212.335 139.97,-81.23 260.24,-171.96547 356.72,-267.8755 56.42,-56.0205 104.77,-113.7815 144.76,-172.3035 40.01,-58.53 71.66,-117.821 95.11,-177.138 34.65,-87.705 51.52,-175.343 51.51,-262.786 -0.05,-115.379 -25.88,-230.273 -76.86,-341.869 -136.92,-299.69 -331.73,-569.37 -573.23,-793.51"
       sodipodi:nodetypes="cccccccccccccccccccc" /></g><g
     transform="matrix(0.00882882,0,0,0.00880825,32.392228,30.326036)"
     font-size="29.1042px"
     fill="none"
     stroke-opacity="1"
     font-family="'MS Shell Dlg 2'"
     stroke-linecap="round"
     stroke-width="25.0905"
     font-style="normal"
     stroke="#000000"
     stroke-linejoin="bevel"
     font-weight="400"
     id="g2830"
     style="opacity:1;fill-rule:evenodd;stroke-width:55.4565;stroke-dasharray:none"><path
       id="path2828"
       style="stroke-width:55.4565;stroke-dasharray:none"
       d="m 3494.91,-821.627 0.64,1637.813 C 3495.69,1169.27 3333.67,1516.18 3025.81,1821.95 2233.33,2609.08 618.922,2992.98 -910.733,2758.03 -2440.39,2523.08 -3504.09,1727.84 -3504.45,818.933 l -0.64,-1637.813"
       sodipodi:nodetypes="cccscc" /><path
       id="path9363"
       style="stroke-width:55.4565;stroke-dasharray:none"
       d="m 3494.91,-821.627 0.64,1637.813 C 3495.69,1169.27 3333.67,1516.18 3025.81,1821.95 2233.33,2609.08 618.922,2992.98 -910.733,2758.03 -2440.39,2523.08 -3504.09,1727.84 -3504.45,818.933 l -0.64,-1637.813"
       sodipodi:nodetypes="cccscc" /></g><g
     transform="matrix(0.00882882,0,0,0.00880825,32.392228,30.326036)"
     font-size="29.1042px"
     fill="none"
     stroke-opacity="1"
     font-family="'MS Shell Dlg 2'"
     stroke-linecap="round"
     stroke-width="25.0905"
     font-style="normal"
     stroke="#000000"
     stroke-linejoin="bevel"
     font-weight="400"
     id="g2838"
     style="opacity:1;fill-rule:evenodd;stroke-width:55.4565;stroke-dasharray:none"><path
       id="path2836"
       style="stroke-width:55.4565;stroke-dasharray:none"
       d="m -1587.31,-1931.52 c -776.18,364.08 -1098.93,958.831 -820.11,1511.247 278.83,552.416 1105.38,955.81 2100.262,1025.017 C 687.721,673.952 1658.79,395.607 2160.3,-102.525 2774.35,-712.433 2526.95,-1487.73 1576.25,-1932.76"
       sodipodi:nodetypes="ccccc" /></g><g
     transform="matrix(0.00882882,0,0,0.00880825,32.392228,30.326036)"
     font-size="29.1042px"
     fill="none"
     stroke-opacity="1"
     font-family="'MS Shell Dlg 2'"
     stroke-linecap="round"
     stroke-width="25.0905"
     font-style="normal"
     stroke="#000000"
     stroke-linejoin="bevel"
     font-weight="400"
     id="g11794"
     style="opacity:1;fill-rule:evenodd;stroke-width:55.4565;stroke-dasharray:none" /><g
     transform="matrix(0.00882882,0,0,0.00880825,32.392228,30.326036)"
     font-size="29.1042px"
     fill="none"
     stroke-opacity="1"
     font-family="'MS Shell Dlg 2'"
     stroke-linecap="round"
     stroke-width="25.0905"
     font-style="normal"
     stroke="#000000"
     stroke-linejoin="bevel"
     font-weight="400"
     id="g11809"
     style="opacity:1;fill-rule:evenodd;stroke-width:55.4565;stroke-dasharray:none" /></g></svg>
